<svg width="18" height="19" viewBox="0 0 18 19" fill="none" xmlns="http://www.w3.org/2000/svg">
<path fill-rule="evenodd" clip-rule="evenodd" d="M6.29354 19C4.63754 19 3.06354 18.334 1.86154 17.125C-0.526457 14.722 -0.624457 10.912 1.64254 8.631L9.02854 1.201C9.79754 0.427 10.8355 0 11.9505 0C13.1435 0 14.2775 0.479 15.1425 1.349C16.8635 3.08 16.9295 5.831 15.2885 7.481L7.89354 14.91C7.41454 15.393 6.76954 15.658 6.07754 15.658C5.34654 15.658 4.65354 15.366 4.12754 14.837C3.07454 13.776 3.04154 12.085 4.05454 11.065L10.8795 4.21C11.2695 3.818 11.9015 3.816 12.2935 4.206C12.6845 4.596 12.6865 5.229 12.2965 5.62L5.47254 12.476C5.23254 12.718 5.26554 13.145 5.54654 13.427C5.69254 13.574 5.88654 13.658 6.07754 13.658C6.18754 13.658 6.34554 13.631 6.47554 13.5L13.8705 6.071C14.7375 5.198 14.6725 3.713 13.7245 2.759C12.8175 1.847 11.2785 1.775 10.4465 2.611L3.06054 10.041C1.56654 11.544 1.66454 14.09 3.28054 15.715C4.10354 16.544 5.17354 17 6.29354 17C7.29454 17 8.22254 16.622 8.90454 15.936L16.2915 8.506C16.6805 8.115 17.3135 8.112 17.7055 8.502C18.0965 8.892 18.0985 9.524 17.7095 9.916L10.3225 17.346C9.26254 18.412 7.83154 19 6.29354 19Z" fill="#828282"/>
</svg>
