<svg width="12" height="12" viewBox="0 0 12 12" fill="none" xmlns="http://www.w3.org/2000/svg">
<path fill-rule="evenodd" clip-rule="evenodd" d="M3.08333 8.33332C3.08333 8.01249 3.34583 7.74999 3.66667 7.74999C3.9875 7.74999 4.25 8.01249 4.25 8.33332C4.25 8.65416 3.9875 8.91666 3.66667 8.91666C3.34583 8.91666 3.08333 8.65416 3.08333 8.33332ZM6 7.74999H8.33333C8.65417 7.74999 8.91667 8.01249 8.91667 8.33332C8.91667 8.65416 8.65417 8.91666 8.33333 8.91666H6C5.67917 8.91666 5.41667 8.65416 5.41667 8.33332C5.41667 8.01249 5.67917 7.74999 6 7.74999ZM9.5 10.6667H2.5C2.17858 10.6667 1.91667 10.4047 1.91667 10.0833V6.58332H10.0833V10.0833C10.0833 10.4047 9.82142 10.6667 9.5 10.6667ZM2.5 2.49999H3.08333V3.08332C3.08333 3.40416 3.34583 3.66666 3.66667 3.66666C3.9875 3.66666 4.25 3.40416 4.25 3.08332V2.49999H7.75V3.08332C7.75 3.40416 8.0125 3.66666 8.33333 3.66666C8.65417 3.66666 8.91667 3.40416 8.91667 3.08332V2.49999H9.5C9.82142 2.49999 10.0833 2.76191 10.0833 3.08332V5.41666H1.91667V3.08332C1.91667 2.76191 2.17858 2.49999 2.5 2.49999ZM9.5 1.33332H8.91667V0.74999C8.91667 0.429157 8.65417 0.166656 8.33333 0.166656C8.0125 0.166656 7.75 0.429157 7.75 0.74999V1.33332H4.25V0.74999C4.25 0.429157 3.9875 0.166656 3.66667 0.166656C3.34583 0.166656 3.08333 0.429157 3.08333 0.74999V1.33332H2.5C1.53517 1.33332 0.75 2.11849 0.75 3.08332V10.0833C0.75 11.0482 1.53517 11.8333 2.5 11.8333H9.5C10.4648 11.8333 11.25 11.0482 11.25 10.0833V3.08332C11.25 2.11849 10.4648 1.33332 9.5 1.33332Z" fill="#828282"/>
</svg>
