<svg width="14" height="14" viewBox="0 0 14 14" fill="none" xmlns="http://www.w3.org/2000/svg">
<path fill-rule="evenodd" clip-rule="evenodd" d="M9.56765 1.11603L12.6488 4.19721L12.6493 4.19667L13.2096 4.75691C13.3643 4.91162 13.3643 5.16246 13.2096 5.31715C13.0549 5.47186 12.804 5.47186 12.6493 5.31715L12.1063 4.77415C12.1004 4.76884 12.0945 4.76333 12.0888 4.7576L12.0878 4.75737L9.07505 8.15788L9.07382 8.15755L9.07469 8.15842C9.37522 9.39394 9.07401 10.746 8.17104 11.7481C8.09493 11.8325 7.96359 11.8363 7.8832 11.7559L7.46689 11.3396L7.46669 11.3398L5.72209 9.5952L1.84037 12.7199L1 13.0001L1.28013 12.1597L4.59128 8.4644L2.56831 6.44143C2.48792 6.36103 2.49169 6.2297 2.57615 6.15358C3.57818 5.25062 4.93028 4.94941 6.16577 5.24993L9.56734 2.2362L9.00741 1.67627C8.8527 1.52156 8.8527 1.27074 9.00741 1.11603C9.16212 0.961322 9.41294 0.961322 9.56765 1.11603Z" fill="#5DB075"/>
<path d="M12.6488 4.19721L12.472 4.37398L12.6488 4.5508L12.8256 4.37394L12.6488 4.19721ZM9.56765 1.11603L9.74443 0.939257L9.74443 0.939257L9.56765 1.11603ZM12.6493 4.19667L12.8261 4.01989L12.6493 3.84308L12.4725 4.01993L12.6493 4.19667ZM13.2096 4.75691L13.3864 4.58015L13.3863 4.58013L13.2096 4.75691ZM13.2096 5.31715L13.0328 5.14037L13.0328 5.14037L13.2096 5.31715ZM12.6493 5.31715L12.4726 5.49392V5.49392L12.6493 5.31715ZM12.1063 4.77415L12.2831 4.59737L12.2778 4.59208L12.2722 4.58711L12.1063 4.77415ZM12.0888 4.7576L12.2656 4.58086L12.2166 4.53187L12.1494 4.51507L12.0888 4.7576ZM12.0878 4.75737L12.1485 4.51483L12.0013 4.47804L11.9007 4.59158L12.0878 4.75737ZM9.07505 8.15788L9.01041 8.39937L9.15969 8.43933L9.26217 8.32366L9.07505 8.15788ZM9.07382 8.15755L9.13847 7.91605L8.23764 7.67492L8.89705 8.33432L9.07382 8.15755ZM9.07469 8.15842L9.31761 8.09933L9.30104 8.03121L9.25147 7.98164L9.07469 8.15842ZM8.17104 11.7481L8.35676 11.9154L8.35676 11.9154L8.17104 11.7481ZM7.8832 11.7559L7.70642 11.9327V11.9327L7.8832 11.7559ZM7.46689 11.3396L7.64366 11.1628L7.46646 10.9856L7.28969 11.1633L7.46689 11.3396ZM7.46669 11.3398L7.28991 11.5166L7.46711 11.6938L7.64389 11.5162L7.46669 11.3398ZM5.72209 9.5952L5.89886 9.41843L5.74016 9.25972L5.56532 9.40046L5.72209 9.5952ZM1.84037 12.7199L1.91943 12.9571L1.9621 12.9429L1.99714 12.9147L1.84037 12.7199ZM1 13.0001L0.76283 12.921L0.604708 13.3954L1.07906 13.2372L1 13.0001ZM1.28013 12.1597L1.09394 11.9929L1.05935 12.0315L1.04296 12.0806L1.28013 12.1597ZM4.59128 8.4644L4.77747 8.63124L4.93541 8.45498L4.76806 8.28763L4.59128 8.4644ZM2.56831 6.44143L2.39153 6.6182L2.39153 6.6182L2.56831 6.44143ZM2.57615 6.15358L2.4088 5.96786L2.40879 5.96787L2.57615 6.15358ZM6.16577 5.24993L6.10669 5.49285L6.23371 5.52375L6.33156 5.43705L6.16577 5.24993ZM9.56734 2.2362L9.73313 2.42332L9.9319 2.24721L9.74412 2.05942L9.56734 2.2362ZM9.00741 1.67627L8.83064 1.85305L8.83064 1.85305L9.00741 1.67627ZM12.8256 4.02043L9.74443 0.939257L9.39087 1.29281L12.472 4.37398L12.8256 4.02043ZM12.4725 4.01993L12.472 4.02047L12.8256 4.37394L12.8261 4.37341L12.4725 4.01993ZM13.3863 4.58013L12.8261 4.01989L12.4726 4.37345L13.0328 4.93369L13.3863 4.58013ZM13.3863 5.49392C13.6387 5.2416 13.6387 4.83248 13.3864 4.58015L13.0328 4.93367C13.0899 4.99076 13.0898 5.08332 13.0328 5.14037L13.3863 5.49392ZM12.4726 5.49392C12.7249 5.74626 13.134 5.74626 13.3863 5.49392L13.0328 5.14037C12.9757 5.19745 12.8832 5.19745 12.8261 5.14037L12.4726 5.49392ZM11.9296 4.95092L12.4726 5.49392L12.8261 5.14037L12.2831 4.59737L11.9296 4.95092ZM11.912 4.93434C11.9212 4.94361 11.9307 4.95256 11.9404 4.96118L12.2722 4.58711C12.27 4.58513 12.2678 4.58305 12.2656 4.58086L11.912 4.93434ZM12.0272 4.99991L12.0281 5.00014L12.1494 4.51507L12.1485 4.51483L12.0272 4.99991ZM9.26217 8.32366L12.275 4.92316L11.9007 4.59158L8.88793 7.99209L9.26217 8.32366ZM9.00918 8.39905L9.01041 8.39937L9.1397 7.91638L9.13847 7.91605L9.00918 8.39905ZM9.25147 7.98164L9.2506 7.98077L8.89705 8.33432L8.89792 8.33519L9.25147 7.98164ZM8.35676 11.9154C9.31712 10.8497 9.63692 9.4121 9.31761 8.09933L8.83178 8.2175C9.11351 9.37579 8.8309 10.6423 7.98532 11.5807L8.35676 11.9154ZM7.70642 11.9327C7.88865 12.1149 8.18537 12.1056 8.35676 11.9154L7.98533 11.5807C8.00449 11.5594 8.03853 11.5577 8.05998 11.5791L7.70642 11.9327ZM7.29011 11.5164L7.70642 11.9327L8.05998 11.5791L7.64366 11.1628L7.29011 11.5164ZM7.64389 11.5162L7.64408 11.516L7.28969 11.1633L7.28949 11.1635L7.64389 11.5162ZM5.54531 9.77198L7.28991 11.5166L7.64346 11.163L5.89886 9.41843L5.54531 9.77198ZM1.99714 12.9147L5.87885 9.78995L5.56532 9.40046L1.68361 12.5252L1.99714 12.9147ZM1.07906 13.2372L1.91943 12.9571L1.76132 12.4828L0.920941 12.7629L1.07906 13.2372ZM1.04296 12.0806L0.76283 12.921L1.23717 13.0791L1.5173 12.2387L1.04296 12.0806ZM4.4051 8.29757L1.09394 11.9929L1.46632 12.3265L4.77747 8.63124L4.4051 8.29757ZM2.39153 6.6182L4.41451 8.64118L4.76806 8.28763L2.74509 6.26465L2.39153 6.6182ZM2.40879 5.96787C2.21861 6.13926 2.20931 6.43598 2.39153 6.6182L2.74509 6.26465C2.76653 6.28609 2.76478 6.32013 2.74352 6.3393L2.40879 5.96787ZM6.22486 5.00701C4.91212 4.6877 3.47451 5.00751 2.4088 5.96786L2.74351 6.3393C3.68185 5.49373 4.94843 5.21111 6.10669 5.49285L6.22486 5.00701ZM9.40155 2.04908L5.99999 5.06281L6.33156 5.43705L9.73313 2.42332L9.40155 2.04908ZM8.83064 1.85305L9.39056 2.41298L9.74412 2.05942L9.18419 1.4995L8.83064 1.85305ZM8.83064 0.939257C8.57829 1.1916 8.57829 1.60071 8.83064 1.85305L9.18419 1.4995C9.12711 1.44242 9.12711 1.34989 9.18419 1.29281L8.83064 0.939257ZM9.74443 0.939257C9.49209 0.686914 9.08298 0.686914 8.83064 0.939257L9.18419 1.29281C9.24127 1.23573 9.3338 1.23573 9.39088 1.29281L9.74443 0.939257Z" fill="#5DB075"/>
</svg>
