<svg width="96" height="96" viewBox="0 0 96 96" fill="none" xmlns="http://www.w3.org/2000/svg">
<mask id="mask0" mask-type="alpha" maskUnits="userSpaceOnUse" x="0" y="0" width="96" height="96">
<circle cx="48" cy="48" r="48" fill="white"/>
</mask>
<g mask="url(#mask0)">
<path d="M40.3463 98H55.5068V53.7776L55.2319 53.6713C54.5882 53.422 54.1637 52.8026 54.1637 52.1124V47.7301C50.3037 50.3933 45.3119 50.1302 41.8108 47.8935V52.1124C41.8108 52.8026 41.3869 53.422 40.7439 53.6713L40.3463 53.8255V98Z" fill="#F0A479"/>
<path d="M46.9824 49.6106C45.121 49.4597 43.3264 48.8619 41.8114 47.8935V52.1131C41.8114 52.8026 41.3876 53.422 40.7439 53.6714L40.3463 53.8255V98H46.9824V49.6106Z" fill="#E5966E"/>
<path d="M55.5068 57.8633L55.4504 57.9316C51.696 62.4503 44.058 62.4175 40.3463 57.8633V98H55.5068V57.8633Z" fill="#D665D3"/>
<path d="M46.9824 61.2549C44.451 61.0292 42.0057 59.8993 40.3463 57.8633V98H46.9824V61.2549Z" fill="#C64AC6"/>
<path d="M40.692 53.6917L25.4889 59.5857C25.4889 59.5857 19.4453 62.0698 19.4453 68.9591V83.8112V95.9863C19.4453 97.0985 20.3468 98 21.459 98H40.692V53.6917Z" fill="#D8DCE5"/>
<path d="M24.6353 95.9863V83.8112C24.6353 78.1921 24.6353 68.7865 24.6353 65.4967C24.6353 62.6183 25.6903 60.5115 26.9186 59.0306L25.4889 59.5857C25.4889 59.5857 19.4453 62.0698 19.4453 68.9591V83.8112V95.9863C19.4453 97.0985 20.3468 98 21.459 98H26.6489C25.5368 98 24.6353 97.0985 24.6353 95.9863V95.9863Z" fill="#C3C8D1"/>
<path d="M70.5039 59.5857L55.2319 53.6713C55.2069 53.6615 55.1853 53.6477 55.161 53.6372V98H74.5332C75.6453 98 76.5468 97.0985 76.5468 95.9863V68.9591C76.5468 62.0698 70.5039 59.5857 70.5039 59.5857Z" fill="#D8DCE5"/>
<path d="M61.4395 95.823C60.723 95.823 60.1423 95.2423 60.1423 94.5258C60.1423 93.8093 60.723 93.228 61.4395 93.228C62.0503 93.228 62.566 92.8205 62.566 92.3389V82.7549C62.566 82.2733 62.0503 81.8658 61.4395 81.8658H57.5847C56.9745 81.8658 56.4581 82.2733 56.4581 82.7549V92.3389C56.4581 92.8205 56.9745 93.228 57.5847 93.228C58.3012 93.228 58.8819 93.8093 58.8819 94.5258C58.8819 95.2423 58.3012 95.823 57.5847 95.823C55.533 95.823 53.8632 94.2601 53.8632 92.3383V82.7549C53.8632 80.8337 55.533 79.2702 57.5847 79.2702H61.4395C63.4912 79.2702 65.161 80.8337 65.161 82.7549V92.3383C65.161 94.2601 63.4912 95.823 61.4395 95.823V95.823Z" fill="#707487"/>
<path d="M59.5118 81.8651C58.7953 81.8651 58.2146 81.2845 58.2146 80.568V71.9917C58.2146 71.2752 58.7953 70.6939 59.5118 70.6939C60.2289 70.6939 60.8096 71.2752 60.8096 71.9917V80.568C60.8096 81.2845 60.2289 81.8651 59.5118 81.8651Z" fill="#00AAF0"/>
<path d="M36.4803 84.2121C35.7638 84.2121 35.1825 83.6308 35.1825 82.9143V71.9917C35.1825 71.2752 35.7638 70.6939 36.4803 70.6939C37.1968 70.6939 37.7775 71.2752 37.7775 71.9917V82.9143C37.7775 83.6308 37.1968 84.2121 36.4803 84.2121Z" fill="#00AAF0"/>
<path d="M69.6417 98V73.2889C69.6417 72.5724 69.0611 71.9918 68.3446 71.9918C67.6281 71.9918 67.0468 72.5724 67.0468 73.2889V98H69.6417Z" fill="#C3C8D1"/>
<path d="M28.9454 98V73.2889C28.9454 72.5724 28.3647 71.9918 27.6482 71.9918C26.9311 71.9918 26.3504 72.5724 26.3504 73.2889V98H28.9454Z" fill="#C3C8D1"/>
<path d="M62.0202 69.133L59.6634 67.3313C59.1063 66.9054 59.0669 66.1246 59.5794 65.6522L63.7051 61.8519C64.1053 61.4832 64.1814 60.9078 63.8895 60.4603L60.8883 55.8621L55.2319 53.6713C55.2069 53.6615 55.1846 53.6477 55.161 53.6372V79.6724L62.2301 70.6755C62.6107 70.1913 62.5188 69.5142 62.0202 69.133V69.133Z" fill="#E4EAF8"/>
<path d="M31.9642 60.4603C31.6716 60.9078 31.7477 61.4832 32.148 61.8519L36.2737 65.6522C36.7861 66.1246 36.7474 66.9054 36.1897 67.3313L33.8329 69.133C33.3342 69.5142 33.2424 70.1913 33.6229 70.6756L40.692 79.6724V53.6917L34.9207 55.9291L31.9642 60.4603Z" fill="#E4EAF8"/>
<path d="M36.4804 89.9985C34.1695 89.9985 32.2897 88.1187 32.2897 85.8078C32.2897 83.4969 34.1695 81.6171 36.4804 81.6171C38.7912 81.6171 40.6711 83.4969 40.6711 85.8078C40.6711 88.1187 38.7912 89.9985 36.4804 89.9985V89.9985Z" fill="#707487"/>
<path d="M36.1556 85.8078C36.1556 84.1937 37.0728 82.7909 38.4133 82.0915C37.8346 81.789 37.1772 81.6171 36.4804 81.6171C34.1695 81.6171 32.2897 83.4969 32.2897 85.8078C32.2897 88.1187 34.1695 89.9985 36.4804 89.9985C37.1772 89.9985 37.8346 89.8266 38.4133 89.5241C37.0728 88.824 36.1556 87.4212 36.1556 85.8078Z" fill="#52586D"/>
<path d="M36.4803 84.2121C35.6005 84.2121 34.884 84.928 34.884 85.8078C34.884 86.6877 35.6005 87.4035 36.4803 87.4035C37.3602 87.4035 38.076 86.6877 38.076 85.8078C38.076 84.928 37.3602 84.2121 36.4803 84.2121Z" fill="#434A5E"/>
<path d="M37.1857 31.4936V30.7908C37.1857 30.2056 37.6863 29.743 38.2657 29.787C43.9806 30.1977 49.4507 28.7273 53.8481 25.8548C54.2588 25.5864 54.8021 25.6534 55.1361 26.0116C58.8957 30.0527 58.5269 29.5508 58.5269 30.0783V30.9063V30.9352V31.4804C59.9724 31.3866 61.6836 32.7783 62.6376 33.6627V26.7812C62.6376 18.6177 56.0199 12 47.8563 12C39.6928 12 33.0751 18.6177 33.0751 26.7812V32.916C34.0796 31.9994 35.8518 31.4496 37.1857 31.4936V31.4936Z" fill="#707487"/>
<path d="M38.2644 26.7812C38.2644 19.5035 43.5252 13.4586 50.4507 12.2316C49.6082 12.082 48.7421 12 47.8563 12C39.6921 12 33.0751 18.6177 33.0751 26.7812V32.9167C34.0796 31.9994 35.8518 31.4496 37.1857 31.4936V30.7908C37.1857 30.2062 37.6857 29.7437 38.2644 29.787V26.7812Z" fill="#52586D"/>
<path d="M58.6995 31.4876V39.6295C58.6995 39.7319 58.6949 39.8342 58.6923 39.9359C61.3903 40.1157 63.8028 38.1277 63.8028 35.7118C63.8028 33.292 61.3896 31.3138 58.6995 31.4876V31.4876Z" fill="#F0A479"/>
<path d="M62.1599 32.5486C61.2308 31.8223 59.998 31.4037 58.6995 31.4877V39.6296C58.6995 39.7319 58.6949 39.8343 58.6923 39.936C59.9947 40.0226 61.2295 39.6033 62.1599 38.8757V32.5486Z" fill="#E5966E"/>
<path d="M37.0132 39.1027V30.9746C34.6124 30.8952 31.9105 32.7369 31.9105 35.1856C31.9105 37.5982 34.3185 39.5895 37.0204 39.4091C37.0178 39.3074 37.0132 39.2057 37.0132 39.1027Z" fill="#F0A479"/>
<path d="M37.0132 38.3494C36.0159 37.5693 35.3696 36.4342 35.3696 35.1856C35.3696 33.9645 36.0414 32.8951 37.0132 32.1392V30.9746C34.6124 30.8958 31.9105 32.7376 31.9105 35.1856C31.9105 37.5982 34.3185 39.5895 37.0204 39.4097C37.0178 39.3074 37.0132 39.2057 37.0132 39.1027V38.3494Z" fill="#E5966E"/>
<path d="M55.1361 25.1468C54.8021 24.7886 54.2589 24.7217 53.8481 24.99C49.4507 27.8625 43.6348 29.6787 37.92 29.268C37.3399 29.2247 36.84 29.6866 36.84 30.2725V39.1027C36.84 44.7782 41.2872 49.9616 48.0132 49.9616C54.001 49.9616 58.8727 45.0905 58.8727 39.1027V29.5593C58.8727 29.0318 58.8957 29.1879 55.1361 25.1468Z" fill="#F7B594"/>
<path d="M42.0299 39.1027V29.1938C40.6678 29.3356 39.2913 29.3664 37.92 29.268C37.3399 29.224 36.84 29.6866 36.84 30.2719V39.1027C36.84 44.7782 41.2872 49.9616 48.0132 49.9616C48.8766 49.9616 49.7145 49.8573 50.5202 49.6664C45.3204 48.4971 42.0299 43.9836 42.0299 39.1027Z" fill="#F0A479"/>
</g>
<circle cx="48" cy="48" r="47" stroke="#BDBDBD" stroke-width="2"/>
</svg>
