<svg width="96" height="96" viewBox="0 0 96 96" fill="none" xmlns="http://www.w3.org/2000/svg">
<mask id="mask0" mask-type="alpha" maskUnits="userSpaceOnUse" x="0" y="0" width="96" height="96">
<circle cx="48" cy="48" r="48" fill="white"/>
</mask>
<g mask="url(#mask0)">
<path d="M48.0243 49.4557C45.6353 49.4557 43.5364 48.8002 41.8193 47.7032V53.7612C45.0015 57.6895 50.9939 57.6895 54.1761 53.7612V47.5398C52.4262 48.7471 50.3069 49.4557 48.0243 49.4557Z" fill="#F0A479"/>
<path d="M47.0106 49.4144C45.0389 49.2562 43.2883 48.6421 41.8193 47.7032V53.7612C43.1814 55.4429 45.0592 56.4021 47.0106 56.6442V49.4144Z" fill="#E5966E"/>
<path d="M70.5216 59.5719L58.3721 54.8668C57.9292 56.2604 57.0506 57.4946 55.8204 58.345C51.1376 61.5829 44.8578 61.5829 40.175 58.345C38.9454 57.4946 38.0662 56.2611 37.6233 54.8681L25.4909 59.5719C25.4909 59.5719 19.4453 62.0573 19.4453 68.9493V83.806H27.5058C28.6186 83.806 29.5202 84.7082 29.5202 85.821V98H66.4923V85.821C66.4923 84.7082 67.3938 83.8067 68.5066 83.8067H76.5665C76.5665 78.185 76.5665 72.2404 76.5665 68.9493C76.5672 62.0573 70.5216 59.5719 70.5216 59.5719V59.5719Z" fill="#00C3FF"/>
<path d="M28.6593 58.3305L25.5125 59.5502C25.5125 59.5502 19.467 62.0357 19.467 68.9276V83.785H24.6583C24.6583 78.1633 24.6583 69.7465 24.6583 66.4553C24.6583 62.2528 26.9048 59.6913 28.6593 58.3305Z" fill="#00AAF0"/>
<path d="M54.1761 53.2416C50.9939 57.1705 45.0015 57.1705 41.8192 53.2416L37.5321 54.9035C37.9382 56.4231 38.8549 57.778 40.175 58.6914C44.8578 61.9294 51.1376 61.9294 55.8204 58.6914C57.1411 57.778 58.0578 56.4225 58.4639 54.9022L54.1761 53.2416Z" fill="#00AAF0"/>
<path d="M60.868 70.1972C58.9744 70.1992 58.2008 71.7247 58.1431 71.7923C57.924 72.0429 57.6326 72.0948 57.3367 71.7864C56.3197 69.9971 53.8743 69.6566 52.4112 71.1217C51.8213 71.7129 51.4965 72.4976 51.4972 73.3309C51.5011 76.8248 54.5823 79.5838 57.609 81.0122C57.6543 81.0338 57.7028 81.0443 57.7521 81.0443C57.8013 81.0443 57.8498 81.0338 57.8957 81.0122C58.3767 80.7839 59.6319 80.1389 60.887 79.0838C62.9492 77.351 63.9938 75.4108 63.9918 73.3178C63.9899 71.5974 62.589 70.1972 60.868 70.1972V70.1972Z" fill="#D665D3"/>
<path d="M56.6891 73.3309C56.6885 72.7023 56.8729 72.1026 57.216 71.5922C56.1373 69.9748 53.8199 69.7117 52.4112 71.1217C51.8213 71.7129 51.4965 72.4976 51.4972 73.3309C51.5011 76.8248 54.5823 79.5838 57.609 81.0122C57.6543 81.0338 57.7035 81.0443 57.7521 81.0443C57.8013 81.0443 57.8505 81.0338 57.8958 81.0122C58.3058 80.8173 59.2769 80.32 60.3313 79.5254C58.2986 77.9927 56.6911 75.8537 56.6891 73.3309V73.3309Z" fill="#C64AC6"/>
<path d="M29.8666 98V85.4745C29.8666 84.3624 28.9644 83.4602 27.8523 83.4602H19.4453V95.9857C19.4453 97.0978 20.3475 98 21.4596 98H30.0805C30.0096 98 29.9375 98 29.8666 98Z" fill="#F0A479"/>
<path d="M24.651 95.9857C24.651 93.8572 24.651 87.4475 24.651 83.4602H19.4453V95.9857C19.4453 97.0978 20.3475 98 21.4596 98H26.666C25.5532 98 24.651 97.0978 24.651 95.9857Z" fill="#E5966E"/>
<path d="M76.5672 83.2457V83.4602H68.1609C67.0481 83.4602 66.1466 84.3624 66.1466 85.4745V98C66.0757 98 66.0035 98 65.932 98H74.5522C75.665 98 76.5672 97.0978 76.5672 95.9857C76.5672 93.8192 76.5672 87.2271 76.5672 83.2457V83.2457Z" fill="#F0A479"/>
<path d="M73.4781 83.4602H68.1608C67.048 83.4602 66.1459 84.3624 66.1459 85.4745V98H71.4638V85.4745C71.4638 84.3624 72.366 83.4602 73.4781 83.4602Z" fill="#E5966E"/>
<path d="M37.1548 31.5001V30.7981C37.1548 30.2121 37.6548 29.7496 38.2348 29.7935C43.9517 30.2043 49.4238 28.7332 53.8225 25.86C54.2332 25.5917 54.7771 25.658 55.1111 26.0169C58.872 30.0593 58.5033 29.5573 58.5033 30.0849V30.9135V30.9418V31.4877C59.9487 31.3938 61.6606 32.7861 62.6152 33.6706V26.7865C62.6152 18.6197 55.9949 12 47.8287 12C39.6619 12 33.0422 18.6197 33.0422 26.7865V32.9239C34.0474 32.006 35.8203 31.4568 37.1548 31.5001V31.5001Z" fill="#707487"/>
<path d="M38.2335 26.7865C38.2335 19.5061 43.4963 13.4592 50.4244 12.2316C49.5813 12.082 48.7145 12 47.8287 12C39.6619 12 33.0422 18.6197 33.0422 26.7865V32.9239C34.0474 32.006 35.8203 31.4562 37.1548 31.5001V30.7974C37.1548 30.2121 37.6542 29.7502 38.2335 29.7935V26.7865Z" fill="#52586D"/>
<path d="M58.6758 31.4949V39.6387C58.6758 39.7418 58.6712 39.8435 58.668 39.9458C61.3673 40.1249 63.7805 38.1369 63.7805 35.7203C63.7805 33.2999 61.3666 31.3204 58.6758 31.4949V31.4949Z" fill="#F0A479"/>
<path d="M62.1369 32.5558C61.2078 31.8288 59.9743 31.4109 58.6758 31.4949V39.6394C58.6758 39.7417 58.6712 39.8434 58.668 39.9458C59.971 40.0324 61.2065 39.6131 62.1369 38.8848V32.5558Z" fill="#E5966E"/>
<path d="M36.9816 39.1125V30.9811C34.5802 30.9024 31.877 32.7448 31.877 35.1935C31.877 37.6074 34.2863 39.5987 36.9888 39.4189C36.9862 39.3172 36.9816 39.2149 36.9816 39.1125Z" fill="#F0A479"/>
<path d="M36.9816 38.3586C35.9843 37.5778 35.338 36.4427 35.338 35.1935C35.338 33.9724 36.0099 32.9023 36.9816 32.1458V30.9811C34.5802 30.9024 31.877 32.7448 31.877 35.1935C31.877 37.6074 34.2863 39.5987 36.9888 39.4189C36.9862 39.3172 36.9816 39.2149 36.9816 39.1125V38.3586Z" fill="#E5966E"/>
<path d="M55.1111 25.1514C54.7771 24.7925 54.2332 24.7263 53.8225 24.9946C49.4238 27.8684 43.6059 29.6846 37.8891 29.2745C37.309 29.2299 36.8084 29.6931 36.8084 30.2784V39.1125C36.8084 44.79 41.257 49.9754 47.9862 49.9754C53.976 49.9754 58.8491 45.1023 58.8491 39.1125V29.5659C58.8491 29.0377 58.872 29.1938 55.1111 25.1514Z" fill="#F7B594"/>
<path d="M42.0004 39.1125V29.1997C40.6376 29.3415 39.2604 29.373 37.8891 29.2745C37.309 29.2299 36.8084 29.6931 36.8084 30.2784V39.1125C36.8084 44.79 41.257 49.9754 47.9862 49.9754C48.849 49.9754 49.6882 49.871 50.4933 49.6801C45.2921 48.5102 42.0004 43.9948 42.0004 39.1125Z" fill="#F0A479"/>
</g>
<circle cx="48" cy="48" r="47" stroke="#5DB075" stroke-width="2"/>
<circle cx="80.5" cy="80.5" r="11.5" fill="#5DB075" stroke="white" stroke-width="2"/>
<path d="M85.6 77.4L79 84L75.7 80.7L76.1713 80.2287L79 83.0573L85.128 76.9287L85.5993 77.4007L85.6 77.4Z" fill="white"/>
</svg>
