<svg width="33" height="32" viewBox="0 0 33 32" fill="none" xmlns="http://www.w3.org/2000/svg">
<path d="M7.00504 15H20.755L15.3384 9.58333L16.445 8.33333L23.945 15.8333L16.445 23.3333L15.3384 22.0833L20.755 16.6667H7.00504V15ZM32.005 15.8333C32.005 17.9126 31.5955 19.9715 30.7998 21.8925C30.0041 23.8135 28.8378 25.5589 27.3676 27.0292C25.8973 28.4995 24.1519 29.6657 22.2309 30.4614C20.3099 31.2571 18.251 31.6667 16.1717 31.6667C14.0924 31.6667 12.0335 31.2571 10.1126 30.4614C8.19157 29.6657 6.44612 28.4995 4.97585 27.0292C3.50559 25.5589 2.33932 23.8135 1.54362 21.8925C0.74792 19.9715 0.338379 17.9126 0.338379 15.8333C0.338379 11.6341 2.00653 7.6068 4.97585 4.63748C7.94518 1.66815 11.9725 0 16.1717 0C20.371 0 24.3982 1.66815 27.3676 4.63748C30.3369 7.6068 32.005 11.6341 32.005 15.8333ZM30.3384 15.8333C30.3384 12.0761 28.8458 8.47275 26.1891 5.81599C23.5323 3.15922 19.9289 1.66667 16.1717 1.66667C12.4145 1.66667 8.81113 3.15922 6.15437 5.81599C3.4976 8.47275 2.00505 12.0761 2.00505 15.8333C2.00505 19.5906 3.4976 23.1939 6.15437 25.8507C8.81113 28.5074 12.4145 30 16.1717 30C19.9289 30 23.5323 28.5074 26.1891 25.8507C28.8458 23.1939 30.3384 19.5906 30.3384 15.8333Z" fill="#5DB075"/>
</svg>
