<svg width="163" height="208" viewBox="0 0 163 208" fill="none" xmlns="http://www.w3.org/2000/svg">
<mask id="mask0" mask-type="alpha" maskUnits="userSpaceOnUse" x="0" y="0" width="163" height="208">
<rect width="163" height="208" fill="url(#paint0_linear)"/>
</mask>
<g mask="url(#mask0)">
<path d="M90.5254 14.9609C90.5254 14.9609 90.5254 4.42284 110.812 11.395C128.383 17.4624 123.112 30.1294 129.821 50.567C138.074 75.8478 118.213 84.5231 108.789 82.2346L89.6202 81.4362L84.5086 57.4327L90.5254 14.9609Z" fill="black"/>
<path d="M94.1993 17.1963C94.1993 17.1963 90.4721 10.7031 84.5085 13.6836C78.4384 16.7705 77.1073 23.104 78.1189 32.7374C79.3436 44.7125 59.6957 65.2032 86.1591 80.7975L102.772 81.4894L94.1993 17.1963Z" fill="black"/>
<path d="M104.423 86.3327C104.423 86.3327 97.0746 102.512 45.6387 128.379L31.5284 112.784L81.8994 78.5622L104.423 86.3327Z" fill="white"/>
<path d="M31.422 108.793L23.1689 70.6852L30.8896 70.0465L41.5388 99.9045C38.2908 102.991 34.9363 105.972 31.422 108.793Z" fill="#AF6F3B"/>
<path d="M31.7416 68.9288L31.6884 66.9064C31.5819 64.192 30.8364 61.5309 29.5053 59.1891L27.1624 55.0377C26.63 54.0265 25.2988 53.8136 24.3936 54.5055C23.6482 55.0909 23.3287 56.1022 23.5949 57.0069L25.0326 61.8502L12.36 49.8219C11.7742 49.2364 10.7626 49.2896 10.2301 49.9815L9.85737 50.4605C9.4314 50.9928 9.48465 51.7379 9.91062 52.2701L18.1638 60.6793L7.3548 52.3766C6.71585 51.7911 5.70417 51.9508 5.22495 52.6427L5.01195 53.0152C4.58598 53.6007 4.69248 54.399 5.27818 54.878L14.4366 62.755L6.18338 58.2843C5.38468 57.8053 4.37301 58.2311 4.10678 59.0826L4.05353 59.2423C3.84054 59.8278 4.10677 60.4664 4.58599 60.839L12.8392 66.108L7.99375 64.4049C7.08856 63.9259 5.97039 64.5646 5.91715 65.629C5.91715 66.108 6.13014 66.587 6.55611 66.8532L27.4819 79.6799L30.2507 74.8366C31.3156 73.027 31.7949 71.0045 31.7416 68.9288Z" fill="#AF6F3B"/>
<path d="M25.0859 61.797C25.0859 61.797 22.9561 65.0968 24.7132 69.7272" stroke="black" stroke-width="0.9896" stroke-miterlimit="10" stroke-linecap="round" stroke-linejoin="round"/>
<path d="M49.3127 113.476L37.4388 78.1896L22.1571 83.9909L29.2921 121.886C30.8895 128.325 37.8115 131.785 43.9349 129.283C49.4725 126.995 52.1348 120.715 49.3127 113.476Z" fill="white"/>
<path d="M45.905 103.045L48.6738 111.507" stroke="#CFDBF7" stroke-width="1.4065" stroke-miterlimit="10" stroke-linecap="round" stroke-linejoin="round"/>
<path d="M111.93 74.6769C111.93 74.6769 124.443 79.3605 128.596 82.6071C132.75 85.8537 133.602 93.0388 130.3 102.938C126.999 112.838 115.445 146.741 115.445 146.741L130.247 207.627H60.3879L69.8125 147.592L68.8009 129.922C68.8009 129.922 62.2516 111.72 68.5346 97.1369C77.2138 76.9655 92.6552 72.4948 92.6552 72.4948L111.93 74.6769Z" fill="white"/>
<path d="M92.7085 72.4948C92.7085 72.4948 87.3306 83.3522 83.4969 105.174C83.4969 105.174 100.802 90.7502 111.93 74.7301L103.997 72.4948H92.7085Z" fill="#AF6F3B"/>
<path d="M116.456 87.6633C116.456 87.6633 88.076 80.6911 74.019 84.1506L72.6878 110.762L91.9098 115.765L106.606 92.2936" fill="#90B2F9"/>
<path d="M83.4968 105.12L77.1073 120.874L75.5099 207.627" stroke="#CFDBF7" stroke-width="1.4065" stroke-miterlimit="10" stroke-linecap="round" stroke-linejoin="round"/>
<path d="M112.197 75.3156L118.267 86.9714L108.256 88.8342L109.907 96.5515L77.1072 120.874L76.0423 91.4421L82.0059 86.5988L79.7695 82.7668L88.1292 74.7834" stroke="#CFDBF7" stroke-width="1.4065" stroke-miterlimit="10" stroke-linecap="round" stroke-linejoin="round"/>
<path d="M65.8722 117.468C65.8722 117.468 65.606 102.512 71.0371 93.0388" stroke="#CFDBF7" stroke-width="1.4065" stroke-miterlimit="10" stroke-linecap="round" stroke-linejoin="round"/>
<path d="M113.315 105.386L113.794 101.821C114.113 99.5852 112.569 97.5627 110.333 97.2434C108.309 96.9773 106.339 98.2546 105.86 100.224L105.221 104.269" stroke="black" stroke-width="1.5718" stroke-miterlimit="10"/>
<path d="M110.333 97.2434C110.333 97.2434 117.415 74.5172 109.321 73.3996" stroke="black" stroke-width="1.5718" stroke-miterlimit="10"/>
<path d="M105.221 104.269C105.221 104.269 100.589 132.051 114.486 122.418" stroke="#CFDBF7" stroke-width="1.4065" stroke-miterlimit="10"/>
<path d="M115.711 122.311C115.604 122.95 115.019 123.429 114.38 123.323C113.741 123.216 113.262 122.631 113.368 121.992C113.475 121.353 114.06 120.874 114.699 120.981C115.338 121.087 115.764 121.673 115.711 122.311Z" fill="black"/>
<path d="M113.315 105.386C113.315 105.386 110.173 133.328 99.4706 120.342" stroke="#CFDBF7" stroke-width="1.4065" stroke-miterlimit="10"/>
<path d="M98.2993 119.916C98.1928 120.555 98.672 121.194 99.311 121.247C99.9499 121.353 100.589 120.874 100.642 120.236C100.749 119.597 100.269 118.958 99.6304 118.905C98.9915 118.799 98.4058 119.278 98.2993 119.916Z" fill="black"/>
<path d="M79.0773 96.8176C79.0773 96.8176 83.55 72.9738 93.0278 72.069" stroke="black" stroke-width="1.5718" stroke-miterlimit="10"/>
<path d="M81.846 100.809C81.6331 103.098 80.0357 104.748 78.3318 104.588C76.6279 104.428 75.4032 102.459 75.6162 100.171C75.8292 97.882 77.4266 96.2321 79.1305 96.3918C80.8344 96.6047 82.059 98.5739 81.846 100.809Z" fill="black"/>
<path d="M79.7695 100.65C79.6098 102.087 78.7578 103.204 77.9059 103.151C77.0007 103.045 76.415 101.821 76.5215 100.384C76.6812 98.9465 77.5332 97.8288 78.3851 97.882C79.3435 97.9353 79.9292 99.1594 79.7695 100.65Z" fill="#CFDBF7"/>
<path d="M127.106 81.5959C127.106 81.5959 145.742 87.6101 158.84 151.903L138.979 158.929L118.267 104.748L127.106 81.5959Z" fill="white"/>
<path d="M125.135 123.908L120.343 110.602" stroke="#CFDBF7" stroke-width="1.4065" stroke-miterlimit="10" stroke-linecap="round" stroke-linejoin="round"/>
<path d="M128.33 144.558L92.4421 144.718L89.9395 153.234L125.615 158.183L128.33 144.558Z" fill="#AF6F3B"/>
<path d="M146.221 140.46L107.511 142.43L108.949 160.791L147.925 163.559C155.007 163.506 159.905 158.822 158.894 151.85C157.882 145.57 152.557 139.556 146.221 140.46Z" fill="white"/>
<path d="M142.92 140.62L107.511 142.43L107.671 144.558" stroke="#CFDBF7" stroke-width="1.4065" stroke-miterlimit="10" stroke-linecap="round" stroke-linejoin="round"/>
<path d="M108.576 156.267L108.948 160.791L122.207 162.175" stroke="#CFDBF7" stroke-width="1.4065" stroke-miterlimit="10" stroke-linecap="round" stroke-linejoin="round"/>
<path d="M78.8643 118.745L93.0278 168.934C93.5603 170.797 92.1759 172.66 90.2057 172.66H57.2995C56.0216 172.66 54.9035 171.809 54.5307 170.584L39.1425 120.395C38.5568 118.533 39.9945 116.616 41.9114 116.616H75.989C77.3734 116.616 78.4916 117.468 78.8643 118.745Z" fill="black"/>
<path d="M62.7307 115.02C62.7307 115.02 60.3879 111.667 54.9035 112.093C48.8334 112.572 49.7918 117.947 49.7918 117.947L62.7307 115.02Z" fill="black"/>
<path d="M73.3799 116.776L85.2006 158.609C85.6266 160.153 84.4552 161.696 82.8578 161.696H55.4359C54.371 161.696 53.4126 161.004 53.0931 159.993L40.2607 118.16C39.7815 116.616 40.9529 115.02 42.6036 115.02H71.0371C72.1553 115.02 73.1137 115.712 73.3799 116.776Z" fill="black"/>
<path d="M77.0008 118.745L91.1643 168.934C91.6967 170.797 90.3123 172.66 88.3422 172.66H55.436C54.1581 172.66 53.0399 171.809 52.6672 170.584L37.279 120.395C36.6933 118.533 38.1309 116.616 40.0478 116.616H74.1255C75.5099 116.616 76.628 117.468 77.0008 118.745Z" fill="#EAB65B"/>
<path d="M95.9031 146.262C95.9031 146.262 94.572 140.939 83.6565 135.67L85.2539 141.525C85.2539 141.525 80.0357 140.726 72.7942 137.32C72.102 137.001 71.3033 137.267 70.9306 137.959C70.5579 138.704 70.8241 139.556 71.5696 139.928L74.1254 141.152L69.8657 140.088C69.1735 139.928 68.428 140.301 68.215 141.046C68.0021 141.684 68.3215 142.43 68.9605 142.696C69.7592 143.068 71.1436 143.6 73.5929 144.399C73.5929 144.399 71.5696 144.186 69.493 143.813C68.7475 143.654 68.0021 144.133 67.8956 144.878C67.7891 145.463 68.1085 146.102 68.6943 146.368C69.8124 146.847 71.8358 147.645 74.3916 148.444C72.4748 148.337 70.3449 147.965 70.0254 148.657C69.7059 149.349 69.7592 150.094 75.1903 151.584C80.5682 153.127 87.8629 155.576 92.6018 154.405L98.5654 151.956V145.357L95.9031 146.262Z" fill="#AF6F3B"/>
<path d="M77.7996 40.2418C77.1607 43.0094 79.0775 46.0431 82.1126 47.0011C85.1476 47.9591 88.0762 46.5221 88.7151 43.7545C89.3541 40.9869 87.4372 37.9532 84.4022 36.9952C81.4204 36.0372 78.4386 37.4742 77.7996 40.2418Z" fill="#965726"/>
<path d="M81.1008 31.7793C80.9411 42.9561 88.6086 52.1637 100.695 52.3233C112.782 52.5362 122.686 43.5948 122.846 32.3648C123.006 21.188 113.368 11.9272 101.281 11.7676C89.1943 11.6079 81.2606 20.6026 81.1008 31.7793Z" fill="black"/>
<path d="M104.423 48.4913L107.511 75.4753L92.8682 77.1784L94.0929 51.6314L104.423 48.4913Z" fill="#AF6F3B"/>
<path d="M93.1877 69.4079L105.86 54.0797L94.0397 53.6539L93.1877 69.4079Z" fill="#965726"/>
<path d="M103.837 17.835C100.323 16.8237 96.5422 16.5576 92.9214 17.1963C88.0228 18.1011 81.7397 20.9219 80.8878 29.544C79.4501 43.8609 81.8462 54.6119 89.1409 58.0182C94.7318 60.6261 98.1928 59.7213 104.689 56.2086C107.138 54.878 111.132 50.088 111.185 47.214L113.687 40.1885C113.687 40.1353 120.716 22.625 103.837 17.835Z" fill="#AF6F3B"/>
<path d="M89.5673 45.564L87.8101 44.1803L89.8335 41.3595" stroke="black" stroke-width="0.8086" stroke-miterlimit="10" stroke-linecap="round" stroke-linejoin="round"/>
<path d="M93.9865 39.0176C93.9865 39.0176 96.2761 33.3228 103.997 37.6871C103.997 37.6871 100.057 42.8497 93.9865 39.0176Z" fill="white"/>
<path d="M95.8501 37.6871C95.6371 39.2305 96.7021 40.6143 98.193 40.8272C99.6838 41.0401 101.068 39.9224 101.228 38.4322C101.441 36.8887 100.376 35.5049 98.8852 35.292C97.4475 35.0792 96.0631 36.1436 95.8501 37.6871Z" fill="black"/>
<path d="M104.103 37.5806C102.612 36.2501 100.589 35.6646 98.6722 35.6646C97.7138 35.6646 96.6489 35.7711 95.7437 36.3033C94.8385 36.7823 94.0931 37.6339 93.8268 38.6983C93.7736 38.9112 93.8801 39.0709 94.0931 39.1241C94.3061 39.1773 94.4658 39.0709 94.519 38.858V38.8048C94.6788 38.0064 95.2645 37.2081 96.0099 36.7823C96.7554 36.3033 97.7138 36.1436 98.619 36.1436C100.483 36.0904 102.399 36.6226 103.837 37.7935C103.89 37.8467 103.997 37.8467 104.103 37.7935C104.157 37.7403 104.157 37.6339 104.103 37.5806Z" fill="black"/>
<path d="M87.4373 38.9112C87.4373 38.9112 85.2009 33.0567 80.888 36.9952C80.9412 36.9952 83.3373 42.5836 87.4373 38.9112Z" fill="white"/>
<path d="M85.8399 37.421C86.0529 38.7515 85.3607 39.9757 84.2958 40.1353C83.2308 40.295 82.2192 39.337 82.0062 38.0064C81.7932 36.6759 82.4854 35.4517 83.5503 35.2921C84.6152 35.1856 85.6269 36.0904 85.8399 37.421Z" fill="black"/>
<path d="M81.0477 37.1016C81.6866 36.1969 82.8581 35.6646 83.8697 35.9307H83.923C85.4139 36.1969 86.532 37.3678 87.0645 38.7516C87.1178 38.9112 87.2775 38.9644 87.4372 38.9112C87.597 38.858 87.6502 38.6983 87.597 38.5387C86.958 37.0484 85.6269 35.7711 83.9762 35.505H84.0295C82.7516 35.1856 81.4737 35.8775 80.8347 36.8888C80.7815 36.942 80.7815 37.0484 80.888 37.1016C80.888 37.1549 80.9944 37.1549 81.0477 37.1016Z" fill="black"/>
<path d="M85.8398 30.6617C85.8398 30.6617 86.2658 32.2051 84.6151 32.4712C83.3372 32.6841 81.8996 32.7906 81.2074 33.1099C80.8346 33.3228 80.3554 33.1099 80.0892 32.6841C79.8762 32.3648 79.8762 31.8858 80.0892 31.5665C80.4619 30.8746 82.0061 29.8633 83.497 29.544C85.4671 29.2246 85.8398 30.6617 85.8398 30.6617Z" fill="black"/>
<path d="M94.7852 29.4375C94.7852 29.4375 94.1995 30.981 96.5424 31.3536C98.3527 31.6197 101.122 32.3648 102.133 32.7374C102.719 32.9502 103.358 32.7906 103.677 32.3648C103.944 32.0455 103.944 31.5665 103.624 31.2471C103.038 30.5552 100.163 28.7989 97.98 28.4795C95.2645 28.0005 94.7852 29.4375 94.7852 29.4375Z" fill="black"/>
<path d="M88.0763 47.9591L96.5425 47.7462C96.5425 47.7462 96.5425 51.2057 92.4958 51.2589C88.2361 51.3653 88.0763 47.9591 88.0763 47.9591Z" fill="white"/>
<path opacity="0.3" d="M91.5937 39.5956C91.0167 35.9073 93.5402 32.4498 97.2301 31.8731C100.92 31.2963 104.379 33.8187 104.956 37.507C105.533 41.1952 103.009 44.6527 99.3196 45.2294C95.6297 45.8062 92.1707 43.2838 91.5937 39.5956Z" fill="white"/>
<path opacity="0.3" d="M81.74 45.7237C78.3581 45.7237 75.6166 42.6975 75.6166 38.9644C75.6166 35.2313 78.3581 32.2051 81.74 32.2051C85.1218 32.2051 87.8633 35.2313 87.8633 38.9644C87.8633 42.6975 85.1218 45.7237 81.74 45.7237Z" fill="white"/>
<path d="M91.5937 39.5956C91.0167 35.9073 93.5402 32.4498 97.2301 31.8731C100.92 31.2963 104.379 33.8187 104.956 37.507C105.533 41.1952 103.009 44.6527 99.3196 45.2294C95.6297 45.8062 92.1707 43.2838 91.5937 39.5956Z" stroke="#EAB65B" stroke-width="1.0097" stroke-miterlimit="10"/>
<path d="M81.74 45.7237C78.3581 45.7237 75.6166 42.6975 75.6166 38.9644C75.6166 35.2313 78.3581 32.2051 81.74 32.2051C85.1218 32.2051 87.8633 35.2313 87.8633 38.9644C87.8633 42.6975 85.1218 45.7237 81.74 45.7237Z" stroke="#EAB65B" stroke-width="1.0096" stroke-miterlimit="10"/>
<path d="M87.8631 38.8047C87.8631 38.8047 89.567 37.6871 91.5371 38.6983" stroke="#EAB65B" stroke-width="1.0097" stroke-miterlimit="10"/>
<path d="M105.062 38.2193L110.12 41.0401" stroke="#EAB65B" stroke-width="1.0097" stroke-miterlimit="10"/>
<path d="M118.267 36.7291C118.267 36.7291 91.6436 28.6924 94.7319 13.4707C94.7319 13.4707 104.423 10.916 112.143 19.5381C119.864 28.107 118.267 36.7291 118.267 36.7291Z" fill="black"/>
<path d="M110.173 32.0455V45.9366L116.563 35.6646L110.173 32.0455Z" fill="black"/>
<path d="M119.491 42.5304C120.13 45.2979 118.214 48.3316 115.179 49.2897C112.143 50.2477 109.215 48.8106 108.576 46.0431C107.937 43.2755 109.854 40.2418 112.889 39.2838C115.871 38.3258 118.853 39.7628 119.491 42.5304Z" fill="#AF6F3B"/>
<path d="M116.563 42.7965C116.563 42.7965 113.262 41.9981 111.558 45.564" stroke="black" stroke-width="0.961" stroke-miterlimit="10" stroke-linecap="round" stroke-linejoin="round"/>
<path d="M94.9449 19.0591C94.9449 19.0591 90.1528 17.4092 87.6502 20.4961C84.3489 24.5943 82.7515 28.5328 78.9178 29.5972C78.9178 29.5972 77.6399 15.7061 93.241 14.4287L100.216 16.877L94.9449 19.0591Z" fill="black"/>
</g>
<defs>
<linearGradient id="paint0_linear" x1="81.5" y1="0" x2="81.5" y2="208" gradientUnits="userSpaceOnUse">
<stop offset="0.563671" stop-color="#C4C4C4"/>
<stop offset="1" stop-color="#C4C4C4" stop-opacity="0"/>
</linearGradient>
</defs>
</svg>
