<svg width="188" height="140" viewBox="0 0 188 140" fill="none" xmlns="http://www.w3.org/2000/svg">
<defs>
<filter id="filter0_d" x="46.6127" y="-9.40958" width="95.166" height="95.166" filterUnits="userSpaceOnUse" color-interpolation-filters="sRGB">
<feFlood flood-opacity="0" result="BackgroundImageFix"/>
<feColorMatrix in="SourceAlpha" type="matrix" values="0 0 0 0 0 0 0 0 0 0 0 0 0 0 0 0 0 0 127 0"/>
<feOffset dy="0.869096"/>
<feGaussianBlur stdDeviation="3.69366"/>
<feColorMatrix type="matrix" values="0 0 0 0 0 0 0 0 0 0 0 0 0 0 0 0 0 0 0.25 0"/>
<feBlend mode="normal" in2="BackgroundImageFix" result="effect1_dropShadow"/>
<feBlend mode="normal" in="SourceGraphic" in2="effect1_dropShadow" result="shape"/>
</filter>
<linearGradient id="paint0_linear" x1="85.396" y1="-28.2038" x2="154.706" y2="9.0587" gradientUnits="userSpaceOnUse">
<stop stop-color="#C4C4C4"/>
<stop offset="0.692405" stop-color="#C4C4C4" stop-opacity="0"/>
</linearGradient>
<clipPath id="clip0">
<rect width="188" height="140" fill="white"/>
</clipPath>
<clipPath id="clip1">
<rect width="80.3914" height="80.3914" fill="white" transform="translate(54 -2.89136)"/>
</clipPath>
</defs>
<g clip-path="url(#clip0)">
<path d="M36.959 114.056C35.25 114.056 33.9268 114.7 32.9893 115.989C32.0518 117.269 31.583 119.056 31.583 121.351C31.583 126.126 33.375 128.514 36.959 128.514C38.4629 128.514 40.2842 128.138 42.4229 127.386V131.194C40.665 131.927 38.7021 132.293 36.5342 132.293C33.4189 132.293 31.0361 131.351 29.3857 129.466C27.7354 127.571 26.9102 124.856 26.9102 121.321C26.9102 119.095 27.3154 117.146 28.126 115.477C28.9365 113.797 30.0986 112.513 31.6123 111.624C33.1357 110.726 34.918 110.276 36.959 110.276C39.0391 110.276 41.1289 110.779 43.2285 111.785L41.7637 115.477C40.9629 115.096 40.1572 114.764 39.3467 114.48C38.5361 114.197 37.7402 114.056 36.959 114.056ZM66.4316 121.263C66.4316 124.808 65.5527 127.532 63.7949 129.437C62.0371 131.341 59.5176 132.293 56.2363 132.293C52.9551 132.293 50.4355 131.341 48.6777 129.437C46.9199 127.532 46.041 124.798 46.041 121.233C46.041 117.669 46.9199 114.949 48.6777 113.074C50.4453 111.189 52.9746 110.247 56.2656 110.247C59.5566 110.247 62.0713 111.194 63.8096 113.089C65.5576 114.983 66.4316 117.708 66.4316 121.263ZM50.8018 121.263C50.8018 123.655 51.2559 125.457 52.1641 126.668C53.0723 127.879 54.4297 128.484 56.2363 128.484C59.8594 128.484 61.6709 126.077 61.6709 121.263C61.6709 116.438 59.8691 114.026 56.2656 114.026C54.459 114.026 53.0967 114.637 52.1787 115.857C51.2607 117.068 50.8018 118.87 50.8018 121.263ZM83.0869 110.584H87.6719L80.3916 132H75.4404L68.1748 110.584H72.7598L76.7881 123.328C77.0127 124.08 77.2422 124.959 77.4766 125.965C77.7207 126.961 77.8721 127.654 77.9307 128.045C78.0381 127.146 78.4043 125.574 79.0293 123.328L83.0869 110.584ZM90.3818 132V110.584H94.9229V132H90.3818ZM118.082 121.087C118.082 124.612 117.076 127.312 115.064 129.188C113.062 131.062 110.167 132 106.378 132H100.313V110.584H107.037C110.533 110.584 113.248 111.507 115.182 113.353C117.115 115.198 118.082 117.776 118.082 121.087ZM113.365 121.204C113.365 116.604 111.334 114.305 107.271 114.305H104.854V128.25H106.803C111.178 128.25 113.365 125.901 113.365 121.204ZM141.959 121.263C141.959 124.808 141.08 127.532 139.322 129.437C137.564 131.341 135.045 132.293 131.764 132.293C128.482 132.293 125.963 131.341 124.205 129.437C122.447 127.532 121.568 124.798 121.568 121.233C121.568 117.669 122.447 114.949 124.205 113.074C125.973 111.189 128.502 110.247 131.793 110.247C135.084 110.247 137.599 111.194 139.337 113.089C141.085 114.983 141.959 117.708 141.959 121.263ZM126.329 121.263C126.329 123.655 126.783 125.457 127.691 126.668C128.6 127.879 129.957 128.484 131.764 128.484C135.387 128.484 137.198 126.077 137.198 121.263C137.198 116.438 135.396 114.026 131.793 114.026C129.986 114.026 128.624 114.637 127.706 115.857C126.788 117.068 126.329 118.87 126.329 121.263ZM155.494 114.056C153.785 114.056 152.462 114.7 151.524 115.989C150.587 117.269 150.118 119.056 150.118 121.351C150.118 126.126 151.91 128.514 155.494 128.514C156.998 128.514 158.819 128.138 160.958 127.386V131.194C159.2 131.927 157.237 132.293 155.069 132.293C151.954 132.293 149.571 131.351 147.921 129.466C146.271 127.571 145.445 124.856 145.445 121.321C145.445 119.095 145.851 117.146 146.661 115.477C147.472 113.797 148.634 112.513 150.147 111.624C151.671 110.726 153.453 110.276 155.494 110.276C157.574 110.276 159.664 110.779 161.764 111.785L160.299 115.477C159.498 115.096 158.692 114.764 157.882 114.48C157.071 114.197 156.275 114.056 155.494 114.056Z" fill="white"/>
<g clip-path="url(#clip1)" filter="url(#filter0_d)">
<path d="M132.444 4.71006L99.7856 -2.82659C99.4135 -2.91295 99.0272 -2.91295 98.6551 -2.82659L96.7081 -2.37753L65.9963 4.71006C64.8564 4.97227 64.0493 5.98815 64.0493 7.1579V33.9334C64.0493 43.9885 67.4973 53.8584 73.7559 61.7279C79.5984 69.0714 87.6908 74.4209 96.7081 76.9378C97.3534 77.1199 98.0019 77.2848 98.6551 77.4356C98.8419 77.4779 99.0303 77.4999 99.2203 77.4999C99.4103 77.4999 99.5987 77.4779 99.7856 77.4356C109.582 75.1746 118.425 69.5959 124.685 61.7279C130.943 53.8584 134.391 43.9885 134.391 33.9334V7.15805C134.391 5.9883 133.584 4.97227 132.444 4.71006Z" fill="white"/>
<path d="M78.6924 55.3204C78.0494 55.3204 77.4066 55.0751 76.9161 54.5845C75.9349 53.6034 75.9349 52.0127 76.9161 51.0317L80.4677 47.48C81.4489 46.4988 83.0395 46.4988 84.0205 47.48C85.0017 48.4611 85.0017 50.0518 84.0205 51.0328L80.4688 54.5845C79.9782 55.0751 79.3353 55.3204 78.6924 55.3204Z" fill="#C5C5C5"/>
<path d="M60.9282 73.0845C60.2852 73.0845 59.6424 72.8393 59.1519 72.3486C58.1707 71.3676 58.1707 69.7769 59.1519 68.7959L62.7036 65.2442C63.6848 64.263 65.2753 64.263 66.2563 65.2442C67.2375 66.2252 67.2375 67.8159 66.2563 68.797L62.7047 72.3486C62.2142 72.8393 61.5712 73.0845 60.9282 73.0845Z" fill="#C5C5C5"/>
<path d="M82.2442 73.0845C81.6012 73.0845 80.9584 72.8393 80.4677 72.3486L76.9161 68.797C75.9349 67.8158 75.9349 66.2252 76.9161 65.2442C77.8971 64.263 79.4876 64.263 80.4688 65.2442L84.0205 68.7959C85.0017 69.777 85.0017 71.3676 84.0205 72.3486C83.5301 72.8393 82.8872 73.0845 82.2442 73.0845Z" fill="#C5C5C5"/>
<path d="M64.48 55.3204C63.8371 55.3204 63.1942 55.0751 62.7036 54.5845L59.1519 51.0328C58.1707 50.0516 58.1707 48.4611 59.1519 47.48C60.1329 46.4988 61.7235 46.4988 62.7047 47.48L66.2563 51.0317C67.2375 52.0129 67.2375 53.6034 66.2563 54.5845C65.7658 55.0751 65.1228 55.3204 64.48 55.3204Z" fill="#C5C5C5"/>
<path d="M59.0249 59.9147C59.0249 65.9801 63.3475 71.0564 69.0738 72.223C69.8856 72.3895 70.7256 72.4758 71.5861 72.4758C78.512 72.4758 84.1472 66.8406 84.1472 59.9147C84.1472 52.9888 78.512 47.3535 71.5861 47.3535C70.7256 47.3535 69.8856 47.4399 69.0738 47.6063C63.3475 48.7729 59.0249 53.8492 59.0249 59.9147Z" fill="#E5E5E5"/>
<path d="M71.586 54.8902C70.1986 54.8902 69.0737 53.7654 69.0737 52.378V44.8413C69.0737 43.454 70.1986 42.3291 71.586 42.3291C72.9733 42.3291 74.0982 43.454 74.0982 44.8413V52.378C74.0982 53.7654 72.9735 54.8902 71.586 54.8902Z" fill="#C5C5C5"/>
<path d="M71.586 77.5001C70.1986 77.5001 69.0737 76.3753 69.0737 74.9879V67.4512C69.0737 66.0638 70.1986 64.939 71.586 64.939C72.9733 64.939 74.0982 66.0638 74.0982 67.4512V74.9879C74.0982 76.3753 72.9735 77.5001 71.586 77.5001Z" fill="#C5C5C5"/>
<path d="M86.6593 62.4268H79.1226C77.7352 62.4268 76.6104 61.3019 76.6104 59.9146C76.6104 58.5272 77.7352 57.4023 79.1226 57.4023H86.6593C88.0466 57.4023 89.1715 58.5272 89.1715 59.9146C89.1715 61.3019 88.0468 62.4268 86.6593 62.4268Z" fill="#C5C5C5"/>
<path d="M64.0494 62.4268H56.5127C55.1253 62.4268 54.0005 61.3019 54.0005 59.9146C54.0005 58.5272 55.1253 57.4023 56.5127 57.4023H64.0494C65.4368 57.4023 66.5616 58.5272 66.5616 59.9146C66.5616 61.3019 65.4369 62.4268 64.0494 62.4268Z" fill="#C5C5C5"/>
</g>
<path d="M99.1929 23.6161V-3L129.177 4.38731C137.433 53.4043 112.628 69.6419 99.1929 71.6336V23.6161Z" fill="url(#paint0_linear)"/>
<path d="M95.8862 46.0974C95.2433 46.0974 94.6004 45.8521 94.1099 45.3614L84.0611 35.3126C83.0799 34.3316 83.0799 32.7409 84.0611 31.7598C85.0421 30.7787 86.6328 30.7787 87.6138 31.7598L95.8864 40.0322L111.696 24.2232C112.677 23.242 114.267 23.242 115.248 24.2232C116.23 25.2042 116.23 26.7949 115.248 27.7759L97.6628 45.3614C97.1722 45.8521 96.5292 46.0974 95.8862 46.0974Z" fill="#5DB075"/>
</g>
</svg>
