<svg width="92" height="140" viewBox="0 0 92 140" fill="none" xmlns="http://www.w3.org/2000/svg">
<path d="M64.7891 59.0915C64.7891 61.5959 62.7585 63.6258 60.2548 63.6258C57.7504 63.6258 55.7205 61.5959 55.7205 59.0915C55.7205 56.5878 57.7504 54.5572 60.2548 54.5572C62.7585 54.5572 64.7891 56.5878 64.7891 59.0915Z" fill="#F7B594"/>
<path d="M61.349 59.0915C61.349 57.6512 62.0215 56.3688 63.0694 55.5378C62.2959 54.9243 61.3181 54.5572 60.2548 54.5572C57.7511 54.5572 55.7205 56.5871 55.7205 59.0915C55.7205 61.5952 57.7511 63.6258 60.2548 63.6258C61.3181 63.6258 62.2959 63.258 63.0694 62.6452C62.0215 61.8149 61.349 60.5318 61.349 59.0915Z" fill="#F0A479"/>
<path d="M36.3867 59.0915C36.3867 61.5959 34.3568 63.6258 31.8531 63.6258C29.3488 63.6258 27.3188 61.5959 27.3188 59.0915C27.3188 56.5878 29.3488 54.5572 31.8531 54.5572C34.3568 54.5572 36.3867 56.5878 36.3867 59.0915Z" fill="#F7B594"/>
<path d="M32.9474 59.0915C32.9474 57.6512 33.6198 56.3688 34.6671 55.5378C33.8943 54.9243 32.9165 54.5572 31.8531 54.5572C29.3488 54.5572 27.3188 56.5871 27.3188 59.0915C27.3188 61.5952 29.3488 63.6258 31.8531 63.6258C32.9172 63.6258 33.8943 63.258 34.6671 62.6452C33.6198 61.8149 32.9474 60.5318 32.9474 59.0915Z" fill="#F0A479"/>
<path d="M60.255 63.6258C58.2833 63.6258 56.1137 64.3614 54.7429 65.5708C55.1262 66.6117 55.3367 67.7361 55.3367 68.9097V78.0576C55.3367 78.7701 54.7591 79.3484 54.0466 79.3484H66.9911C67.5653 79.3484 68.0307 78.8831 68.0307 78.3089V71.4015C68.0307 67.1072 64.5492 63.6258 60.255 63.6258Z" fill="#00AAF0"/>
<path d="M54.0466 79.3484H61.1366C61.2166 78.9301 61.2601 78.4991 61.2601 78.0576V68.9097C61.2601 67.0532 60.9246 65.2732 60.3125 63.6272C60.2929 63.6272 60.2739 63.6258 60.255 63.6258C58.2826 63.6258 56.1137 64.3614 54.7429 65.5708C55.1262 66.6117 55.3367 67.7361 55.3367 68.9097V78.0576C55.3367 78.7701 54.7591 79.3484 54.0466 79.3484Z" fill="#059ADB"/>
<path d="M36.7716 78.0576V68.9097C36.7716 67.7361 36.9814 66.6117 37.3654 65.5708C35.9946 64.3614 33.825 63.6258 31.8533 63.6258C27.5591 63.6258 24.0776 67.1072 24.0776 71.4015V78.3089C24.0776 78.8824 24.543 79.3484 25.1172 79.3484H38.0617C37.3492 79.3484 36.7716 78.7701 36.7716 78.0576Z" fill="#FFC850"/>
<path d="M29.6311 78.3089V71.4015C29.6311 68.0534 31.7466 65.2009 34.7136 64.1052C33.7878 63.7964 32.7981 63.6258 31.8533 63.6258C27.5591 63.6258 24.0776 67.1072 24.0776 71.4015V78.3089C24.0776 78.8824 24.5423 79.3484 25.1165 79.3484H30.6699C30.0965 79.3484 29.6311 78.8824 29.6311 78.3089Z" fill="#FEB644"/>
<path d="M51.6827 53.6286C51.6827 56.7373 49.1628 59.2571 46.0541 59.2571C42.9454 59.2571 40.4255 56.7373 40.4255 53.6286C40.4255 50.5198 42.9454 48 46.0541 48C49.1628 48 51.6827 50.5198 51.6827 53.6286Z" fill="#F7B594"/>
<path d="M46.0541 53.6286C46.0541 51.5453 47.1863 49.7281 48.868 48.7552C48.0405 48.2758 47.0796 48 46.0541 48C42.9454 48 40.4255 50.5198 40.4255 53.6286C40.4255 56.7373 42.9454 59.2571 46.0541 59.2571C47.0796 59.2571 48.0405 58.9813 48.868 58.5026C47.1863 57.5291 46.0541 55.7118 46.0541 53.6286Z" fill="#F0A479"/>
<path d="M46.0542 59.2571C40.7232 59.2571 36.4016 63.5788 36.4016 68.9097V78.0577C36.4016 78.7701 36.9786 79.3478 37.6917 79.3478H54.4167C55.1291 79.3478 55.7068 78.7701 55.7068 78.0577V68.9097C55.7068 63.5788 51.3852 59.2571 46.0542 59.2571Z" fill="#D665D3"/>
<path d="M41.9551 78.0577V68.9097C41.9551 64.5446 44.8539 60.8575 48.8309 59.6649C47.9514 59.401 47.02 59.2571 46.0542 59.2571C40.7232 59.2571 36.4016 63.5788 36.4016 68.9097V78.0577C36.4016 78.7701 36.9786 79.3485 37.6917 79.3485H43.2452C42.5327 79.3485 41.9551 78.7701 41.9551 78.0577Z" fill="#C64AC6"/>
<path d="M78.6145 84.6569C78.771 85.0809 78.8054 85.5343 78.7205 85.9709L79.8218 84.7566C80.2408 84.294 80.4718 83.7023 80.4718 83.0896V69.3421C80.4718 68.5026 80.7209 67.7193 81.1505 67.056C79.9559 66.0024 78.2088 65.6016 76.5734 66.1582C74.2185 66.9598 72.9874 69.4417 73.8226 71.7005L78.6145 84.6569Z" fill="#F0A479"/>
<path d="M78.4966 71.7005C77.7652 69.7232 78.618 67.5747 80.4219 66.5324C79.3024 65.8852 77.9014 65.7062 76.5734 66.1583C74.2185 66.9598 72.9874 69.4418 73.8226 71.7005L78.6145 84.6569C78.771 85.0809 78.8054 85.5343 78.7205 85.9709L79.8218 84.7566C80.2408 84.2948 80.4718 83.7024 80.4718 83.0896V77.0413L78.4966 71.7005Z" fill="#E5966E"/>
<path d="M75.9039 104.838L86.1236 90.7782C87.9092 88.3861 88.8737 85.4809 88.8737 82.4964V69.4396C88.8737 67.0061 86.8817 64.9558 84.4489 65.0022C82.0905 65.0464 80.1918 66.9724 80.1918 69.342V83.0895C80.1918 83.7023 79.9707 84.294 79.5685 84.7566L74.6004 90.4666C74.4846 90.5992 74.2649 90.4792 74.3197 90.3107C74.8868 88.5876 74.4425 86.6166 73.0247 85.3076C71.1365 83.5647 68.0685 83.7184 66.2822 85.5652L52.7817 99.5218C51.2474 101.108 50.3896 103.229 50.3896 105.436V118.991H70.8417C71.2166 114.029 72.9629 108.885 75.9039 104.838Z" fill="#F7B594"/>
<path d="M55.9434 118.991V105.436C55.9434 103.229 56.8011 101.108 58.3362 99.5219L71.8359 85.5653C72.0633 85.3308 72.3111 85.1238 72.5743 84.9448C70.6777 83.5992 67.9326 83.8596 66.2824 85.5653L52.7827 99.5219C51.2476 101.108 50.3899 103.229 50.3899 105.436V118.991H70.842H55.9434Z" fill="#F0A479"/>
<path d="M62.9602 99.7613C62.9602 100.107 63.0992 100.451 63.3722 100.705C63.8937 101.186 64.7058 101.155 65.188 100.634L74.5585 90.5003C74.4391 90.5719 74.2707 90.461 74.3198 90.3115C74.6673 89.2552 74.6329 88.1054 74.2293 87.0729L63.3013 98.8895C63.0732 99.1366 62.9602 99.4496 62.9602 99.7613Z" fill="#F0A479"/>
<path d="M13.4935 84.657C13.337 85.0809 13.3026 85.5344 13.3868 85.9709L12.2862 84.7566C11.8665 84.2941 11.6363 83.7024 11.6363 83.0896V69.3421C11.6363 68.5026 11.3871 67.7193 10.9575 67.056C12.1522 66.0025 13.8985 65.6017 15.5346 66.1583C17.8895 66.9599 19.1207 69.4418 18.2854 71.7005L13.4935 84.657Z" fill="#F0A479"/>
<path d="M15.5346 66.1582C13.8985 65.6016 12.1522 66.0024 10.9575 67.056C11.3871 67.72 11.6363 68.5026 11.6363 69.3421V83.0896C11.6363 83.7023 11.8672 84.2947 12.2862 84.7566L13.3868 85.9709C13.3026 85.5343 13.337 85.0809 13.4935 84.6569L15.4308 79.4193V69.3421C15.4308 68.8648 15.35 68.4057 15.2012 67.9762C14.9766 67.3255 15.2805 66.5969 15.9088 66.3162C15.913 66.314 15.9172 66.3126 15.9214 66.3105C15.7964 66.2551 15.6673 66.2039 15.5346 66.1582Z" fill="#E5966E"/>
<path d="M16.2042 104.838L5.98444 90.7782C4.19949 88.3861 3.23438 85.4816 3.23438 82.4964V69.4396C3.23438 67.0061 5.22568 64.9558 7.65918 65.0022C10.0176 65.0471 11.9162 66.9731 11.9162 69.342V83.0895C11.9162 83.7023 12.1373 84.294 12.5395 84.7566L17.5076 90.4666C17.6234 90.5999 17.8431 90.4792 17.7884 90.3114C17.2212 88.5883 17.6655 86.6166 19.0834 85.3076C20.9708 83.5647 24.0395 83.7191 25.8259 85.5652L39.3263 99.5218C40.8607 101.108 41.7184 103.229 41.7184 105.436V118.991H21.2663C20.8915 114.029 19.1451 108.885 16.2042 104.838Z" fill="#F7B594"/>
<path d="M21.7583 104.838L11.5379 90.7782C9.75296 88.3861 8.78784 85.4816 8.78784 82.4964V69.4396C8.78784 68.0835 9.40692 66.8475 10.3755 66.0256C9.63995 65.4037 8.69379 65.0218 7.65918 65.0022C5.22638 64.9558 3.23438 67.0061 3.23438 69.4396V82.4964C3.23438 85.4816 4.19879 88.3861 5.98444 90.7782L16.2042 104.839C19.1451 108.885 20.8915 114.029 21.2663 118.991H26.8198C26.4449 114.029 24.6993 108.885 21.7583 104.838Z" fill="#F0A479"/>
<path d="M29.1481 99.7611C29.1481 100.107 29.0091 100.451 28.7353 100.705C28.2145 101.186 27.4024 101.154 26.9202 100.634L17.5498 90.5002C17.6691 90.5718 17.8376 90.4609 17.7885 90.3114C17.441 89.255 17.4754 88.1053 17.879 87.0728L28.8069 98.8894C29.0351 99.1364 29.1481 99.4495 29.1481 99.7611Z" fill="#F0A479"/>
<path d="M46.0584 125.555V138.04C46.0584 139.122 45.181 140 44.098 140H19.2744C18.1921 140 17.3147 139.122 17.3147 138.04V125.555H46.0584Z" fill="#00AAF0"/>
<path d="M22.8682 138.04V125.555H17.3147V138.04C17.3147 139.122 18.1921 140 19.2744 140H24.8279C23.7455 140 22.8682 139.122 22.8682 138.04Z" fill="#059ADB"/>
<path d="M19.2744 118.621H44.098C45.181 118.621 46.0584 119.498 46.0584 120.58V125.925H17.3147V120.58C17.3147 119.498 18.1921 118.621 19.2744 118.621Z" fill="#E4EAF8"/>
<path d="M24.8279 118.621H19.2744C18.1921 118.621 17.3147 119.498 17.3147 120.58V125.925H22.8682V120.58C22.8682 119.498 23.7455 118.621 24.8279 118.621Z" fill="#D8DCE5"/>
<path d="M74.7935 125.555V138.04C74.7935 139.122 73.9161 140 72.8338 140H48.0095C46.9272 140 46.0498 139.122 46.0498 138.04V125.555H74.7935Z" fill="#00AAF0"/>
<path d="M51.604 138.04V125.555H46.0505V138.04C46.0505 139.122 46.9279 140 48.0103 140H53.5637C52.4814 140 51.604 139.122 51.604 138.04Z" fill="#059ADB"/>
<path d="M48.0096 118.621H72.8338C73.9161 118.621 74.7935 119.498 74.7935 120.58V125.925H46.0505V120.58C46.0505 119.498 46.9279 118.621 48.0096 118.621Z" fill="#E4EAF8"/>
<path d="M53.5637 118.621H48.0095C46.9279 118.621 46.0498 119.498 46.0498 120.58V125.925H51.6033V120.58C51.604 119.498 52.4814 118.621 53.5637 118.621Z" fill="#D8DCE5"/>
<g clip-path="url(#clip0)">
<path d="M74.509 10.7026C74.2118 10.5711 74.0773 10.2235 74.2091 9.92628L76.497 4.75692C76.6288 4.45967 76.9763 4.32577 77.2736 4.45699C77.5708 4.58851 77.705 4.93605 77.5735 5.2333L75.2853 10.4027C75.1541 10.6993 74.8069 10.8344 74.509 10.7026Z" fill="#E54A4A"/>
<path d="M79.3525 32.8975L76.1353 28.4893C75.9434 28.2266 76.0011 27.8585 76.2636 27.6669C76.526 27.4752 76.8944 27.5327 77.086 27.7951L80.3034 32.2033C80.4951 32.4661 80.4376 32.8342 80.1749 33.0258C79.9124 33.2177 79.5444 33.16 79.3525 32.8975Z" fill="#E54A4A"/>
<path d="M81.0102 19.145C80.7132 19.145 80.4582 18.9213 80.4258 18.6192C80.391 18.2961 80.6249 18.006 80.9483 17.9712L86.4506 17.3808C86.7743 17.3466 87.0642 17.5799 87.0987 17.903C87.1335 18.2265 86.8996 18.5166 86.5762 18.5511L81.0739 19.1417C81.0524 19.1438 81.0313 19.145 81.0102 19.145Z" fill="#E54A4A"/>
<path d="M82.472 19.6967C82.472 26.2615 77.15 31.5832 70.5851 31.5832C64.0202 31.5832 58.6982 26.2615 58.6982 19.6967C58.6982 13.1315 64.0202 7.80981 70.5851 7.80981C77.15 7.80981 82.472 13.1315 82.472 19.6967Z" fill="#F77C7C"/>
<path d="M61.0525 19.6967C61.0525 13.5287 65.7499 8.45877 71.7622 7.86784C71.3751 7.82975 70.9823 7.80981 70.5851 7.80981C64.0202 7.80981 58.6982 13.1315 58.6982 19.6967C58.6982 26.2615 64.0202 31.5832 70.5851 31.5832C70.9823 31.5832 71.3751 31.5633 71.7622 31.5252C65.7502 30.9343 61.0525 25.8643 61.0525 19.6967Z" fill="#F25C5C"/>
<path d="M63.6519 34.7212C63.3547 34.5897 63.2205 34.2422 63.352 33.9449L65.5878 28.8934C65.7196 28.5961 66.0672 28.462 66.3644 28.5935C66.6617 28.725 66.7959 29.0725 66.6644 29.3698L64.4286 34.4213C64.297 34.718 63.9501 34.853 63.6519 34.7212Z" fill="#E54A4A"/>
<path d="M63.9633 11.4626L60.6947 6.98413C60.5031 6.72169 60.5606 6.35332 60.8233 6.162C61.0857 5.97008 61.4538 6.0278 61.6454 6.29024L64.914 10.7684C65.1056 11.0311 65.0482 11.3992 64.7858 11.5908C64.523 11.7827 64.155 11.725 63.9633 11.4626Z" fill="#E54A4A"/>
<path d="M54.6728 21.7638C54.3758 21.7638 54.1205 21.5397 54.0884 21.2377C54.0536 20.9146 54.2875 20.6244 54.6106 20.5896L60.0832 20.0026C60.4066 19.9675 60.6964 20.2019 60.7312 20.5251C60.7657 20.8482 60.5319 21.1383 60.2087 21.1731L54.7362 21.7602C54.715 21.7623 54.6936 21.7638 54.6728 21.7638Z" fill="#E54A4A"/>
<path d="M61.2681 3.54619C60.2954 2.98442 59.0519 3.31767 58.4905 4.29037C57.9287 5.26306 58.2619 6.50653 59.2346 7.06801C60.2073 7.62979 61.4508 7.29653 62.0123 6.32383C62.5741 5.35144 62.2408 4.10767 61.2681 3.54619Z" fill="#F77C7C"/>
<path d="M60.8543 4.29011C61.0045 4.03005 61.2039 3.81611 61.4333 3.65216C61.3806 3.61467 61.3256 3.57896 61.2682 3.54593C60.2958 2.98446 59.052 3.31771 58.4905 4.29011C57.929 5.2628 58.2623 6.50657 59.2347 7.06805C59.9473 7.47926 60.8049 7.40993 61.4333 6.96152C60.59 6.36047 60.3258 5.20538 60.8543 4.29011Z" fill="#F25C5C"/>
<path d="M71.1691 25.3305C71.1691 26.4285 70.2789 27.3188 69.1806 27.3188C68.0827 27.3188 67.1924 26.4285 67.1924 25.3305C67.1924 24.2326 68.0827 23.3423 69.1806 23.3423C70.2789 23.3423 71.1691 24.2326 71.1691 25.3305Z" fill="#F25C5C"/>
<path d="M69.3112 25.3305C69.3112 24.622 69.6823 24.0005 70.2402 23.6485C69.9334 23.4548 69.5704 23.3423 69.1806 23.3423C68.0827 23.3423 67.1924 24.2326 67.1924 25.3305C67.1924 26.4288 68.0827 27.3188 69.1806 27.3188C69.5704 27.3188 69.9334 27.2063 70.2402 27.0129C69.6823 26.6606 69.3112 26.039 69.3112 25.3305Z" fill="#E54A4A"/>
<path d="M75.8533 21.0136C75.8533 21.6352 75.3495 22.139 74.7279 22.139C74.1063 22.139 73.6023 21.6352 73.6023 21.0136C73.6023 20.3921 74.1063 19.8883 74.7279 19.8883C75.3495 19.8883 75.8533 20.3921 75.8533 21.0136Z" fill="#F25C5C"/>
<path d="M75.373 21.0136C75.373 20.7518 75.4632 20.5114 75.6131 20.3203C75.4069 20.0576 75.0874 19.8883 74.7276 19.8883C74.106 19.8883 73.6023 20.3921 73.6023 21.0136C73.6023 21.6352 74.106 22.139 74.7276 22.139C75.0874 22.139 75.4069 21.9697 75.6131 21.7069C75.4632 21.5159 75.373 21.2755 75.373 21.0136Z" fill="#E54A4A"/>
<path d="M70.4528 15.9482C70.4528 17.2011 69.4373 18.2167 68.1843 18.2167C66.9313 18.2167 65.9158 17.2011 65.9158 15.9482C65.9158 14.6952 66.9313 13.6796 68.1843 13.6796C69.4373 13.6796 70.4528 14.6952 70.4528 15.9482Z" fill="#F25C5C"/>
<path d="M68.0346 15.9482C68.0346 15.0781 68.5247 14.3226 69.2436 13.9421C68.9276 13.7748 68.5669 13.6796 68.1843 13.6796C66.9313 13.6796 65.9158 14.6952 65.9158 15.9482C65.9158 17.2011 66.9313 18.2167 68.1843 18.2167C68.5669 18.2167 68.9276 18.1215 69.2436 17.9542C68.5247 17.5737 68.0346 16.8182 68.0346 15.9482Z" fill="#E54A4A"/>
<path d="M65.1962 20.301C65.1962 20.8291 64.768 21.2576 64.2396 21.2576C63.7114 21.2576 63.283 20.8291 63.283 20.301C63.283 19.7725 63.7114 19.3444 64.2396 19.3444C64.768 19.3444 65.1962 19.7725 65.1962 20.301Z" fill="#F25C5C"/>
<path d="M76.188 14.974C76.188 15.6887 75.6087 16.268 74.8937 16.268C74.1789 16.268 73.5996 15.6887 73.5996 14.974C73.5996 14.259 74.1789 13.6796 74.8937 13.6796C75.6087 13.6796 76.188 14.259 76.188 14.974Z" fill="#F25C5C"/>
<path d="M75.7185 14.974C75.7185 14.6975 75.8057 14.442 75.9532 14.2319C75.7191 13.8983 75.3323 13.6796 74.8937 13.6796C74.1789 13.6796 73.5996 14.259 73.5996 14.974C73.5996 15.6887 74.1789 16.268 74.8937 16.268C75.3323 16.268 75.7191 16.0493 75.9532 15.7158C75.8057 15.5057 75.7185 15.2501 75.7185 14.974Z" fill="#E54A4A"/>
<path d="M74.9955 25.5855C74.845 25.5855 74.6944 25.5278 74.5793 25.413C74.3496 25.1832 74.3496 24.8104 74.5793 24.5807L74.9637 24.196C75.1937 23.9663 75.5662 23.9663 75.7963 24.196C76.026 24.426 76.026 24.7985 75.7963 25.0282L75.4118 25.413C75.2967 25.5278 75.1461 25.5855 74.9955 25.5855Z" fill="#F25C5C"/>
<path d="M71.2381 20.6605C71.0968 20.6605 70.9548 20.6099 70.8424 20.5072L70.4398 20.1415C70.1994 19.9228 70.1818 19.5503 70.4005 19.3099C70.6192 19.0695 70.9914 19.0516 71.2319 19.2706L71.6342 19.6363C71.8746 19.855 71.8924 20.2272 71.6737 20.468C71.5574 20.5956 71.3982 20.6605 71.2381 20.6605Z" fill="#F25C5C"/>
<path d="M78.7347 1.7963C77.7621 1.23482 76.5186 1.56808 75.9568 2.54048C75.3953 3.51317 75.7286 4.75693 76.7013 5.31841C77.6737 5.87989 78.9174 5.54663 79.4789 4.57424C80.0404 3.60154 79.7074 2.35778 78.7347 1.7963Z" fill="#F77C7C"/>
<path d="M78.3208 2.53986C78.4711 2.27981 78.6704 2.06587 78.8999 1.90192C78.8472 1.86442 78.7921 1.82872 78.7347 1.79569C77.7623 1.23421 76.5185 1.56747 75.9571 2.53986C75.3956 3.51256 75.7288 4.75602 76.7012 5.3178C77.4136 5.72902 78.2714 5.65969 78.8999 5.21128C78.0566 4.61022 77.7924 3.45513 78.3208 2.53986Z" fill="#F25C5C"/>
<path d="M88.9832 16.0356C88.0105 15.4741 86.767 15.8074 86.2056 16.7801C85.6438 17.7525 85.977 18.9962 86.9497 19.5577C87.9221 20.1192 89.1659 19.7862 89.7274 18.8136C90.2891 17.8409 89.9559 16.5974 88.9832 16.0356Z" fill="#F77C7C"/>
<path d="M88.5696 16.7792C88.7199 16.5188 88.9192 16.3049 89.1489 16.1412C89.096 16.1034 89.0409 16.0677 88.9838 16.0347C88.0111 15.4732 86.7673 15.8065 86.2058 16.7792C85.6444 17.7516 85.9776 18.9953 86.95 19.5568C87.6627 19.9683 88.5202 19.899 89.1489 19.4506C88.3054 18.8495 88.0411 17.6944 88.5696 16.7792Z" fill="#F25C5C"/>
<path d="M81.7652 32.0492C80.7928 31.4878 79.549 31.821 78.9875 32.7934C78.4258 33.7661 78.759 35.0099 79.7317 35.5713C80.7044 36.1328 81.9479 35.7996 82.5094 34.8272C83.0711 33.8545 82.7379 32.6107 81.7652 32.0492Z" fill="#F77C7C"/>
<path d="M81.3523 32.7928C81.5026 32.5327 81.7019 32.3185 81.9313 32.1548C81.8787 32.117 81.8236 32.0816 81.7662 32.0483C80.7938 31.4868 79.55 31.8201 78.9886 32.7928C78.4271 33.7652 78.7603 35.0089 79.7327 35.5704C80.4454 35.9819 81.3029 35.9126 81.9316 35.4642C81.0881 34.8631 80.8239 33.7081 81.3523 32.7928Z" fill="#F25C5C"/>
<path d="M64.2987 33.7991C63.3263 33.2373 62.0825 33.5706 61.521 34.5433C60.9596 35.516 61.2928 36.7595 62.2652 37.3209C63.2379 37.8827 64.4814 37.5495 65.0431 36.5768C65.6046 35.6044 65.2714 34.3606 64.2987 33.7991Z" fill="#F77C7C"/>
<path d="M63.8858 34.543C64.036 34.2829 64.2354 34.069 64.4651 33.905C64.4121 33.8673 64.3571 33.8318 64.2999 33.7988C63.3273 33.237 62.0835 33.5703 61.522 34.543C60.9605 35.5157 61.2938 36.7592 62.2662 37.3206C62.9788 37.7321 63.8364 37.6628 64.4651 37.2144C63.6215 36.6134 63.3573 35.4583 63.8858 34.543Z" fill="#F25C5C"/>
<path d="M54.0501 19.5473C53.0774 18.9858 51.8339 19.3191 51.2724 20.2918C50.7107 21.2642 51.0439 22.508 52.0166 23.0694C52.9893 23.6309 54.2328 23.2977 54.7943 22.3253C55.356 21.3526 55.0228 20.1091 54.0501 19.5473Z" fill="#F77C7C"/>
<path d="M53.6369 20.2915C53.7872 20.0315 53.9865 19.8175 54.216 19.6539C54.1633 19.6161 54.1082 19.5804 54.0508 19.5473C53.0784 18.9859 51.8347 19.3191 51.2732 20.2915C50.7114 21.2642 51.0447 22.508 52.0174 23.0694C52.7297 23.4807 53.5872 23.4113 54.216 22.9629C53.3727 22.3619 53.1085 21.2068 53.6369 20.2915Z" fill="#F25C5C"/>
</g>
<defs>
<clipPath id="clip0">
<rect width="39" height="39" fill="white" transform="translate(51)"/>
</clipPath>
</defs>
</svg>
