<svg width="88" height="131" viewBox="0 0 88 131" fill="none" xmlns="http://www.w3.org/2000/svg">
<path d="M31.9587 131H55.052V63.638L54.6333 63.4761C53.6528 63.0963 53.0062 62.1528 53.0062 61.1014V54.4261C47.1264 58.4829 39.5226 58.0821 34.1895 54.6749V61.1014C34.1895 62.1528 33.5439 63.0963 32.5644 63.4761L31.9587 63.711V131Z" fill="#F0A479"/>
<path d="M42.0672 57.2905C39.2317 57.0607 36.4982 56.1502 34.1905 54.675V61.1025C34.1905 62.1529 33.5449 63.0964 32.5644 63.4761L31.9587 63.711V131H42.0672V57.2905Z" fill="#E5966E"/>
<path d="M55.052 69.8616L54.9661 69.9655C49.2472 76.8487 37.6126 76.7988 31.9587 69.8616V131H55.052V69.8616Z" fill="#D665D3"/>
<path d="M42.0672 75.0277C38.2113 74.6839 34.4864 72.9629 31.9587 69.8616V131H42.0672V75.0277Z" fill="#C64AC6"/>
<path d="M32.4855 63.5071L9.32728 72.4851C9.32728 72.4851 0.121338 76.2691 0.121338 86.7633V109.387V127.933C0.121338 129.627 1.49458 131 3.18865 131H32.4855V63.5071Z" fill="#D8DCE5"/>
<path d="M8.02699 127.933V109.387C8.02699 100.828 8.02699 86.5004 8.02699 81.4892C8.02699 77.1046 9.63411 73.8953 11.5051 71.6396L9.32728 72.4851C9.32728 72.4851 0.121338 76.269 0.121338 86.7633V109.387V127.933C0.121338 129.627 1.49458 131 3.18865 131H11.0943C9.40024 131 8.02699 129.627 8.02699 127.933Z" fill="#C3C8D1"/>
<path d="M77.8968 72.4852L54.6336 63.4761C54.5956 63.4611 54.5626 63.4401 54.5256 63.4241V131H84.0344C85.7285 131 87.1017 129.627 87.1017 127.933V86.7633C87.1017 76.2691 77.8968 72.4852 77.8968 72.4852Z" fill="#D8DCE5"/>
<path d="M64.0895 127.684C62.9981 127.684 62.1136 126.799 62.1136 125.708C62.1136 124.616 62.9981 123.731 64.0895 123.731C65.02 123.731 65.8055 123.11 65.8055 122.377V107.778C65.8055 107.044 65.02 106.423 64.0895 106.423H58.2177C57.2882 106.423 56.5017 107.044 56.5017 107.778V122.377C56.5017 123.11 57.2882 123.731 58.2177 123.731C59.3091 123.731 60.1936 124.616 60.1936 125.708C60.1936 126.799 59.3091 127.684 58.2177 127.684C55.0924 127.684 52.5488 125.303 52.5488 122.376V107.778C52.5488 104.851 55.0924 102.47 58.2177 102.47H64.0895C67.2148 102.47 69.7584 104.851 69.7584 107.778V122.376C69.7584 125.303 67.2148 127.684 64.0895 127.684Z" fill="#707487"/>
<path d="M61.1527 106.422C60.0613 106.422 59.1768 105.538 59.1768 104.447V91.3827C59.1768 90.2913 60.0613 89.4058 61.1527 89.4058C62.2451 89.4058 63.1296 90.2913 63.1296 91.3827V104.447C63.1296 105.538 62.2451 106.422 61.1527 106.422Z" fill="#00AAF0"/>
<path d="M26.0702 109.998C24.9788 109.998 24.0933 109.112 24.0933 108.021V91.3827C24.0933 90.2913 24.9788 89.4058 26.0702 89.4058C27.1616 89.4058 28.0461 90.2913 28.0461 91.3827V108.021C28.0461 109.112 27.1616 109.998 26.0702 109.998Z" fill="#00AAF0"/>
<path d="M76.5834 131V93.3587C76.5834 92.2673 75.6989 91.3828 74.6075 91.3828C73.5161 91.3828 72.6306 92.2673 72.6306 93.3587V131H76.5834Z" fill="#C3C8D1"/>
<path d="M14.5922 131V93.3587C14.5922 92.2673 13.7077 91.3828 12.6163 91.3828C11.5239 91.3828 10.6394 92.2673 10.6394 93.3587V131H14.5922Z" fill="#C3C8D1"/>
<path d="M64.9739 87.0282L61.3839 84.2837C60.5353 83.635 60.4754 82.4457 61.2559 81.7261L67.5405 75.9373C68.1501 75.3756 68.2661 74.499 67.8213 73.8174L63.2498 66.8133L54.6336 63.4761C54.5956 63.4611 54.5616 63.4401 54.5256 63.4241V103.082L65.2937 89.3779C65.8734 88.6403 65.7335 87.6088 64.9739 87.0282Z" fill="#E4EAF8"/>
<path d="M19.1909 73.8174C18.7451 74.499 18.861 75.3756 19.4707 75.9372L25.7553 81.7261C26.5358 82.4457 26.4769 83.635 25.6273 84.2837L22.0373 87.0282C21.2777 87.6088 21.1378 88.6403 21.7175 89.3779L32.4855 103.082V63.5071L23.6944 66.9152L19.1909 73.8174Z" fill="#E4EAF8"/>
<path d="M26.0698 118.812C22.5497 118.812 19.6863 115.948 19.6863 112.428C19.6863 108.908 22.5497 106.045 26.0698 106.045C29.5898 106.045 32.4533 108.908 32.4533 112.428C32.4533 115.948 29.5898 118.812 26.0698 118.812Z" fill="#707487"/>
<path d="M25.575 112.428C25.575 109.97 26.9723 107.833 29.0142 106.767C28.1326 106.307 27.1312 106.045 26.0698 106.045C22.5497 106.045 19.6863 108.908 19.6863 112.428C19.6863 115.948 22.5497 118.812 26.0698 118.812C27.1312 118.812 28.1326 118.55 29.0142 118.089C26.9723 117.023 25.575 114.886 25.575 112.428Z" fill="#52586D"/>
<path d="M26.0701 109.998C24.7298 109.998 23.6384 111.088 23.6384 112.428C23.6384 113.768 24.7298 114.859 26.0701 114.859C27.4104 114.859 28.5008 113.768 28.5008 112.428C28.5008 111.088 27.4104 109.998 26.0701 109.998Z" fill="#434A5E"/>
<path d="M27.1446 29.6937V28.6233C27.1446 27.7318 27.9072 27.0271 28.7897 27.0941C37.4949 27.7198 45.8273 25.48 52.5257 21.1044C53.1513 20.6956 53.9789 20.7976 54.4876 21.3433C60.2144 27.4989 59.6527 26.7343 59.6527 27.5379V28.7992V28.8431V29.6737C61.8545 29.5308 64.4611 31.6506 65.9143 32.9979V22.5156C65.9143 10.0805 55.8338 0 43.3987 0C30.9635 0 20.8831 10.0805 20.8831 22.5156V31.8605C22.4132 30.4643 25.1127 29.6267 27.1446 29.6937Z" fill="#707487"/>
<path d="M28.7877 22.5156C28.7877 11.4297 36.8013 2.22178 47.3505 0.352806C46.0672 0.124931 44.7479 0 43.3987 0C30.9625 0 20.8831 10.0805 20.8831 22.5156V31.8615C22.4132 30.4643 25.1127 29.6267 27.1446 29.6937V28.6233C27.1446 27.7328 27.9062 27.0281 28.7877 27.0941V22.5156Z" fill="#52586D"/>
<path d="M59.9158 29.6847V42.0869C59.9158 42.2428 59.9088 42.3987 59.9048 42.5536C64.0145 42.8275 67.6895 39.7991 67.6895 36.1191C67.6895 32.4332 64.0135 29.4198 59.9158 29.6847Z" fill="#F0A479"/>
<path d="M65.1869 31.3008C63.7717 30.1944 61.8937 29.5567 59.9158 29.6847V42.0869C59.9158 42.2428 59.9088 42.3987 59.9048 42.5536C61.8887 42.6855 63.7697 42.0469 65.1869 40.9385V31.3008Z" fill="#E5966E"/>
<path d="M26.8816 41.2843V28.9031C23.2246 28.7822 19.1089 31.5876 19.1089 35.3176C19.1089 38.9926 22.7769 42.0259 26.8926 41.7511C26.8886 41.5961 26.8816 41.4412 26.8816 41.2843Z" fill="#F0A479"/>
<path d="M26.8816 40.1369C25.3625 38.9486 24.378 37.2195 24.378 35.3176C24.378 33.4576 25.4014 31.8285 26.8816 30.6771V28.9031C23.2246 28.7832 19.1089 31.5886 19.1089 35.3176C19.1089 38.9926 22.7769 42.0259 26.8926 41.752C26.8886 41.5961 26.8816 41.4412 26.8816 41.2843V40.1369Z" fill="#E5966E"/>
<path d="M54.4874 20.026C53.9786 19.4803 53.1511 19.3783 52.5254 19.7871C45.8271 24.1627 36.968 26.9292 28.2628 26.3035C27.3793 26.2375 26.6177 26.9412 26.6177 27.8337V41.2843C26.6177 49.9295 33.392 57.8252 43.6373 57.8252C52.7583 57.8252 60.1792 50.4053 60.1792 41.2843V26.7473C60.1792 25.9437 60.2142 26.1816 54.4874 20.026Z" fill="#F7B594"/>
<path d="M34.5233 41.2843V26.1906C32.4485 26.4065 30.3516 26.4535 28.2628 26.3036C27.3793 26.2366 26.6177 26.9412 26.6177 27.8327V41.2843C26.6177 49.9296 33.392 57.8252 43.6373 57.8252C44.9526 57.8252 46.2289 57.6663 47.4562 57.3755C39.5356 55.5944 34.5233 48.7192 34.5233 41.2843Z" fill="#F0A479"/>
</svg>
