<svg width="20" height="20" viewBox="0 0 20 20" fill="none" xmlns="http://www.w3.org/2000/svg">
<path fill-rule="evenodd" clip-rule="evenodd" d="M5.8335 9.1661C5.8335 8.7061 6.20684 8.33277 6.66684 8.33277C7.12684 8.33277 7.50017 8.7061 7.50017 9.1661C7.50017 9.6261 7.12684 9.99943 6.66684 9.99943C6.20684 9.99943 5.8335 9.6261 5.8335 9.1661ZM10.0002 8.33277C9.54017 8.33277 9.16684 8.7061 9.16684 9.1661C9.16684 9.6261 9.54017 9.99943 10.0002 9.99943C10.4602 9.99943 10.8335 9.6261 10.8335 9.1661C10.8335 8.7061 10.4602 8.33277 10.0002 8.33277ZM13.3335 8.33277C12.8735 8.33277 12.5002 8.7061 12.5002 9.1661C12.5002 9.6261 12.8735 9.99943 13.3335 9.99943C13.7935 9.99943 14.1668 9.6261 14.1668 9.1661C14.1668 8.7061 13.7935 8.33277 13.3335 8.33277ZM16.5822 10.2452C16.1597 12.9569 13.9738 15.206 11.2663 15.7135C9.95883 15.9602 8.62717 15.8194 7.41883 15.3077C7.07633 15.1627 6.72217 15.0894 6.37467 15.0894C6.21633 15.0894 6.05967 15.1044 5.9055 15.1352L3.56217 15.6035L4.03133 13.256C4.12967 12.7685 4.06967 12.2469 3.85883 11.7477C3.34717 10.5394 3.20717 9.20852 3.453 7.90018C3.9605 5.19268 6.20883 3.00685 8.92133 2.58435V2.58435C11.0797 2.24852 13.1905 2.92852 14.7138 4.45185C16.238 5.97602 16.9188 8.08768 16.5822 10.2452M15.893 3.27352C13.9888 1.37018 11.3555 0.521017 8.66467 0.93685C5.26717 1.46685 2.4505 4.20352 1.81467 7.59268C1.508 9.22435 1.68467 10.886 2.32383 12.3968C2.40467 12.5893 2.42967 12.7685 2.398 12.9293L1.683 16.5027C1.628 16.776 1.71383 17.0585 1.91133 17.2552C2.06883 17.4135 2.28133 17.4993 2.5005 17.4993C2.55467 17.4993 2.60883 17.4943 2.66383 17.4835L6.233 16.7693C6.438 16.7302 6.63633 16.7877 6.76883 16.8427C8.28133 17.4818 9.943 17.6577 11.573 17.3518C14.963 16.716 17.6997 13.8993 18.2297 10.5018C18.648 7.81268 17.7972 5.17768 15.893 3.27352" fill="white"/>
<mask id="mask0" mask-type="alpha" maskUnits="userSpaceOnUse" x="1" y="0" width="18" height="18">
<path fill-rule="evenodd" clip-rule="evenodd" d="M5.8335 9.1661C5.8335 8.7061 6.20684 8.33277 6.66684 8.33277C7.12684 8.33277 7.50017 8.7061 7.50017 9.1661C7.50017 9.6261 7.12684 9.99943 6.66684 9.99943C6.20684 9.99943 5.8335 9.6261 5.8335 9.1661ZM10.0002 8.33277C9.54017 8.33277 9.16684 8.7061 9.16684 9.1661C9.16684 9.6261 9.54017 9.99943 10.0002 9.99943C10.4602 9.99943 10.8335 9.6261 10.8335 9.1661C10.8335 8.7061 10.4602 8.33277 10.0002 8.33277ZM13.3335 8.33277C12.8735 8.33277 12.5002 8.7061 12.5002 9.1661C12.5002 9.6261 12.8735 9.99943 13.3335 9.99943C13.7935 9.99943 14.1668 9.6261 14.1668 9.1661C14.1668 8.7061 13.7935 8.33277 13.3335 8.33277ZM16.5822 10.2452C16.1597 12.9569 13.9738 15.206 11.2663 15.7135C9.95883 15.9602 8.62717 15.8194 7.41883 15.3077C7.07633 15.1627 6.72217 15.0894 6.37467 15.0894C6.21633 15.0894 6.05967 15.1044 5.9055 15.1352L3.56217 15.6035L4.03133 13.256C4.12967 12.7685 4.06967 12.2469 3.85883 11.7477C3.34717 10.5394 3.20717 9.20852 3.453 7.90018C3.9605 5.19268 6.20883 3.00685 8.92133 2.58435V2.58435C11.0797 2.24852 13.1905 2.92852 14.7138 4.45185C16.238 5.97602 16.9188 8.08768 16.5822 10.2452M15.893 3.27352C13.9888 1.37018 11.3555 0.521017 8.66467 0.93685C5.26717 1.46685 2.4505 4.20352 1.81467 7.59268C1.508 9.22435 1.68467 10.886 2.32383 12.3968C2.40467 12.5893 2.42967 12.7685 2.398 12.9293L1.683 16.5027C1.628 16.776 1.71383 17.0585 1.91133 17.2552C2.06883 17.4135 2.28133 17.4993 2.5005 17.4993C2.55467 17.4993 2.60883 17.4943 2.66383 17.4835L6.233 16.7693C6.438 16.7302 6.63633 16.7877 6.76883 16.8427C8.28133 17.4818 9.943 17.6577 11.573 17.3518C14.963 16.716 17.6997 13.8993 18.2297 10.5018C18.648 7.81268 17.7972 5.17768 15.893 3.27352" fill="white"/>
</mask>
<g mask="url(#mask0)">
</g>
</svg>
