<svg width="16" height="16" viewBox="0 0 16 16" fill="none" xmlns="http://www.w3.org/2000/svg">
<path fill-rule="evenodd" clip-rule="evenodd" d="M11.0776 4.14197C10.7882 3.91397 10.3696 3.96597 10.1422 4.25597L5.43889 10.2613L3.18622 7.46331C2.95422 7.17731 2.53555 7.13064 2.24889 7.36197C1.96155 7.59331 1.91689 8.01331 2.14689 8.29931L4.92622 11.7513C5.05355 11.9086 5.24422 12 5.44622 12H5.45089C5.65355 11.9986 5.84555 11.9046 5.97089 11.744L11.1916 5.07731C11.4189 4.78797 11.3682 4.36864 11.0776 4.14197ZM14.4109 4.14197C14.1209 3.91397 13.7029 3.96597 13.4756 4.25597L8.77223 10.2613L8.36956 9.76197L7.52623 10.84L8.25956 11.7513C8.38689 11.9086 8.57756 12 8.77956 12H8.78423C8.98689 11.9986 9.17889 11.9046 9.30423 11.744L14.5249 5.07731C14.7522 4.78797 14.7016 4.36864 14.4109 4.14197ZM6.65336 7.6297L5.80869 8.70703L5.48069 8.2997C5.25002 8.01303 5.29469 7.59303 5.58202 7.3617C5.86936 7.13103 6.28869 7.17703 6.51936 7.4637L6.65336 7.6297Z" fill="#222B45"/>
<mask id="mask0" mask-type="alpha" maskUnits="userSpaceOnUse" x="2" y="3" width="13" height="9">
<path fill-rule="evenodd" clip-rule="evenodd" d="M11.0776 4.14197C10.7882 3.91397 10.3696 3.96597 10.1422 4.25597L5.43889 10.2613L3.18622 7.46331C2.95422 7.17731 2.53555 7.13064 2.24889 7.36197C1.96155 7.59331 1.91689 8.01331 2.14689 8.29931L4.92622 11.7513C5.05355 11.9086 5.24422 12 5.44622 12H5.45089C5.65355 11.9986 5.84555 11.9046 5.97089 11.744L11.1916 5.07731C11.4189 4.78797 11.3682 4.36864 11.0776 4.14197ZM14.4109 4.14197C14.1209 3.91397 13.7029 3.96597 13.4756 4.25597L8.77223 10.2613L8.36956 9.76197L7.52623 10.84L8.25956 11.7513C8.38689 11.9086 8.57756 12 8.77956 12H8.78423C8.98689 11.9986 9.17889 11.9046 9.30423 11.744L14.5249 5.07731C14.7522 4.78797 14.7016 4.36864 14.4109 4.14197ZM6.65336 7.6297L5.80869 8.70703L5.48069 8.2997C5.25002 8.01303 5.29469 7.59303 5.58202 7.3617C5.86936 7.13103 6.28869 7.17703 6.51936 7.4637L6.65336 7.6297Z" fill="white"/>
</mask>
<g mask="url(#mask0)">
</g>
</svg>
